<svg width="18" height="17" viewBox="0 0 18 17" fill="none" xmlns="http://www.w3.org/2000/svg">
<path d="M16.1239 1.30734H14.2292V2.06522C14.2292 2.72837 13.6798 3.27783 13.0166 3.27783C12.3535 3.27783 11.804 2.74732 11.804 2.06522V1.30734H6.21463V2.06522C6.21463 2.72837 5.68411 3.27783 5.00202 3.27783C4.33887 3.27783 3.78941 2.74732 3.78941 2.06522V1.30734H1.8947C0.852617 1.30734 0 2.15996 0 3.20205V14.2292C0 15.2713 0.852617 16.1239 1.8947 16.1239H16.105C17.1471 16.1239 17.9997 15.2713 17.9997 14.2292V3.20205C18.0186 2.15996 17.166 1.30734 16.1239 1.30734ZM16.9765 14.2292C16.9765 14.7029 16.5976 15.0818 16.1239 15.0818H1.91365C1.43998 15.0818 1.06103 14.7029 1.06103 14.2292V5.45674H16.9765V14.2292Z" fill="#B5BEBD"/>
<path d="M5.0209 2.59574C5.3051 2.59574 5.53247 2.36838 5.53247 2.08417V0.51157C5.53247 0.227364 5.3051 0 5.0209 0C4.73669 0 4.50933 0.227364 4.50933 0.51157V2.08417C4.49038 2.36838 4.73669 2.59574 5.0209 2.59574Z" fill="#B5BEBD"/>
<path d="M13.0167 2.59574C13.3009 2.59574 13.5283 2.36838 13.5283 2.08417V0.51157C13.5283 0.227364 13.3009 0 13.0167 0C12.7325 0 12.5051 0.227364 12.5051 0.51157V2.08417C12.5051 2.36838 12.7325 2.59574 13.0167 2.59574Z" fill="#B5BEBD"/>
</svg>
