<svg width="8" height="18" viewBox="0 0 8 18" fill="none" xmlns="http://www.w3.org/2000/svg">
<path d="M7.69666 16.0489C7.61386 16.3837 7.54546 16.6789 7.46446 16.9687C7.4526 16.9983 7.43484 17.0253 7.41225 17.0479C7.38967 17.0705 7.36273 17.0882 7.33307 17.1001C6.49968 17.3809 5.6789 17.7229 4.82571 17.9119C4.08785 18.0766 3.31712 18.0093 2.61895 17.7193C2.1674 17.5367 1.78559 17.2152 1.52869 16.8014C1.2718 16.3876 1.15311 15.9028 1.18978 15.4171C1.24198 14.2489 1.64697 13.169 1.93316 12.0584C2.16536 11.1584 2.41736 10.2458 2.61715 9.32962C2.66391 9.00763 2.66027 8.68032 2.60635 8.35944C2.57035 8.01385 2.33996 7.81945 2.00336 7.75645C1.43504 7.64453 0.846403 7.70083 0.309594 7.91845C0.224996 7.95085 0.129598 7.96525 0 8.00125C0.0773986 7.67545 0.136797 7.38746 0.219596 7.10126C0.234986 7.06314 0.2579 7.02851 0.28697 6.99944C0.316041 6.97037 0.350671 6.94746 0.388793 6.93207C1.28878 6.58647 2.16536 6.21208 3.13014 6.09508C3.73184 6.01652 4.34356 6.07812 4.91751 6.27508C5.97049 6.63507 6.52668 7.58726 6.45468 8.69964C6.37728 9.94341 5.92729 11.09 5.6321 12.2762C5.4185 13.1402 5.2115 14.0059 5.01111 14.8735C4.9825 15.0241 4.97282 15.1777 4.98231 15.3307C4.99671 15.9895 5.2649 16.3045 5.91829 16.3171C6.37375 16.3033 6.82747 16.2545 7.27547 16.1713C7.41861 16.1406 7.55937 16.0997 7.69666 16.0489Z" fill="#B5BEBD"/>
<path d="M5.72925 0.000385285C6.93343 0.0237849 7.82621 0.82657 7.93061 1.98035C8.00621 2.78673 7.50942 3.58232 6.69043 3.97111C5.56905 4.5021 4.15428 4.02871 3.63049 2.94873C2.9681 1.56276 4.09488 -0.0284142 5.72925 0.000385285Z" fill="#B5BEBD"/>
</svg>
