<svg width="14" height="17" viewBox="0 0 14 17" fill="none" xmlns="http://www.w3.org/2000/svg">
<path fill-rule="evenodd" clip-rule="evenodd" d="M2.89106 4.02151C2.89106 3.5038 2.45461 2.96217 1.93598 2.88331C1.93598 2.88331 1.29354 2.7148 1.29354 2.77238V10.9103C1.29354 13.5671 3.47292 15.7211 6.16156 15.7211C6.38091 15.7211 6.59688 15.7068 6.80855 15.679C7.62543 15.5718 8.37833 15.2644 9.01509 14.8084C9.10626 14.7778 9.19189 14.7267 9.26442 14.655L11.9877 11.9625C12.2414 11.7117 12.2415 11.3069 11.9888 11.0571C11.7373 10.8084 11.3257 10.8084 11.073 11.0582L9.94723 12.1713C9.69071 12.3472 9.32859 12.3248 9.09664 12.0928C8.83985 11.8361 8.83985 11.4197 9.09664 11.1629L9.70402 10.5556C9.70301 10.5526 11.2114 9.05321 11.2114 9.05321C11.4638 8.80372 11.4634 8.40108 11.2099 8.15044C10.9579 7.90133 10.5475 7.90095 10.2967 8.1489L9.11601 9.31626C8.85386 9.48512 8.49723 9.46451 8.26937 9.23664C8.01884 8.98612 8.01884 8.57994 8.26937 8.32941L10.203 6.37337C10.4573 6.12197 10.4575 5.71692 10.2049 5.46718C9.95348 5.21859 9.54158 5.21871 9.28836 5.46906L7.15685 7.58512C6.90632 7.83565 6.50014 7.83565 6.24962 7.58512C6.09516 7.43066 6.03593 7.21704 6.07193 7.0172C6.09298 6.88951 6.15275 6.76696 6.25124 6.66847C6.2505 6.66719 10.5931 2.3697 10.5931 2.3697C10.8445 2.1212 10.8446 1.71464 10.5928 1.46569C10.3411 1.21677 9.93014 1.21657 9.67847 1.46539L3.98752 7.1182C3.73699 7.36873 3.33081 7.36873 3.08029 7.1182C2.95156 6.98948 2.88898 6.81967 2.89253 6.65099C2.89204 6.6512 2.89106 4.02151 2.89106 4.02151ZM8.76381 0.561077C9.52137 -0.187908 10.7513 -0.186245 11.5075 0.561385C12.2652 1.31054 12.2635 2.52685 11.5078 3.27401L10.5834 4.18799C10.7774 4.27932 10.9592 4.40429 11.1196 4.56287C11.7365 5.17281 11.851 6.0914 11.4624 6.81697C11.7037 6.91055 11.9298 7.05363 12.1245 7.24613C12.816 7.92981 12.8783 8.99928 12.3075 9.75093C12.524 9.84404 12.7267 9.97801 12.9035 10.1528C13.6612 10.9019 13.6613 12.1164 12.9024 12.8668L10.1791 15.5593C10.0198 15.7167 9.8397 15.8411 9.64754 15.9324C8.65617 16.6058 7.45544 17 6.16156 17C2.75862 17 0 14.2736 0 10.9103V2.57083C0 1.86622 0.572949 1.38214 1.27632 1.48909L2.1326 1.61928C3.20916 1.78298 4.09499 2.73609 4.20443 3.7986C4.2158 4.21113 4.20443 5.0754 4.20443 5.0754L4.42137 4.85434L5.79434 3.49692L6.28783 3.00342C6.30591 2.98535 6.3248 2.96857 6.34438 2.9531L8.76381 0.561077Z" fill="#F5F7F7"/>
<path fill-rule="evenodd" clip-rule="evenodd" d="M2.89106 4.02151C2.89106 3.5038 2.45461 2.96217 1.93598 2.88331C1.93598 2.88331 1.29354 2.7148 1.29354 2.77238V10.9103C1.29354 13.5671 3.47292 15.7211 6.16156 15.7211C6.38091 15.7211 6.59688 15.7068 6.80855 15.679C7.62543 15.5718 8.37833 15.2644 9.01509 14.8084C9.10626 14.7778 9.19189 14.7267 9.26442 14.655L11.9877 11.9625C12.2414 11.7117 12.2415 11.3069 11.9888 11.0571C11.7373 10.8084 11.3257 10.8084 11.073 11.0582L9.94723 12.1713C9.69071 12.3472 9.32859 12.3248 9.09664 12.0928C8.83985 11.8361 8.83985 11.4197 9.09664 11.1629L9.70402 10.5556C9.70301 10.5526 11.2114 9.05321 11.2114 9.05321C11.4638 8.80372 11.4634 8.40108 11.2099 8.15044C10.9579 7.90133 10.5475 7.90095 10.2967 8.1489L9.11601 9.31626C8.85386 9.48512 8.49723 9.46451 8.26937 9.23664C8.01884 8.98612 8.01884 8.57994 8.26937 8.32941L10.203 6.37337C10.4573 6.12197 10.4575 5.71692 10.2049 5.46718C9.95348 5.21859 9.54158 5.21871 9.28836 5.46906L7.15685 7.58512C6.90632 7.83565 6.50014 7.83565 6.24962 7.58512C6.09516 7.43066 6.03593 7.21704 6.07193 7.0172C6.09298 6.88951 6.15275 6.76696 6.25124 6.66847C6.2505 6.66719 10.5931 2.3697 10.5931 2.3697C10.8445 2.1212 10.8446 1.71464 10.5928 1.46569C10.3411 1.21677 9.93014 1.21657 9.67847 1.46539L3.98752 7.1182C3.73699 7.36873 3.33081 7.36873 3.08029 7.1182C2.95156 6.98948 2.88898 6.81967 2.89253 6.65099C2.89204 6.6512 2.89106 4.02151 2.89106 4.02151ZM8.76381 0.561077C9.52137 -0.187908 10.7513 -0.186245 11.5075 0.561385C12.2652 1.31054 12.2635 2.52685 11.5078 3.27401L10.5834 4.18799C10.7774 4.27932 10.9592 4.40429 11.1196 4.56287C11.7365 5.17281 11.851 6.0914 11.4624 6.81697C11.7037 6.91055 11.9298 7.05363 12.1245 7.24613C12.816 7.92981 12.8783 8.99928 12.3075 9.75093C12.524 9.84404 12.7267 9.97801 12.9035 10.1528C13.6612 10.9019 13.6613 12.1164 12.9024 12.8668L10.1791 15.5593C10.0198 15.7167 9.8397 15.8411 9.64754 15.9324C8.65617 16.6058 7.45544 17 6.16156 17C2.75862 17 0 14.2736 0 10.9103V2.57083C0 1.86622 0.572949 1.38214 1.27632 1.48909L2.1326 1.61928C3.20916 1.78298 4.09499 2.73609 4.20443 3.7986C4.2158 4.21113 4.20443 5.0754 4.20443 5.0754L4.42137 4.85434L5.79434 3.49692L6.28783 3.00342C6.30591 2.98535 6.3248 2.96857 6.34438 2.9531L8.76381 0.561077Z" fill="url(#paint0_linear)"/>
<defs>
<linearGradient id="paint0_linear" x1="6.16685e-08" y1="0.68" x2="16.9188" y2="11.7149" gradientUnits="userSpaceOnUse">
<stop stop-color="#FFD653"/>
<stop offset="1" stop-color="#EF4B23"/>
</linearGradient>
</defs>
</svg>
