<svg width="22" height="20" viewBox="0 0 22 20" fill="none" xmlns="http://www.w3.org/2000/svg">
<path d="M7.56574 12.6118L7.85788 14.7296L9.81377 13.8667L9.52181 11.749L7.56574 12.6118Z" fill="#FFB23F"/>
<path d="M8.37755 5.32892C6.72345 4.40552 4.62632 4.99988 3.70282 6.65416C2.77931 8.30844 3.37395 10.4055 5.02806 11.3289C6.68234 12.2524 8.77947 11.658 9.70297 10.0038C10.6265 8.34948 10.0318 6.25243 8.37755 5.32892ZM5.41421 10.6372C4.1415 9.92669 3.68404 8.31303 4.39453 7.04031C5.10502 5.7676 6.71869 5.31014 7.9914 6.02064C9.26429 6.73123 9.72175 8.34489 9.01126 9.61761C8.30067 10.8905 6.6871 11.3478 5.41421 10.6372Z" fill="#FFB23F"/>
<path d="M7.51423 6.87652C6.71197 6.42866 5.6986 6.71594 5.25074 7.5182C4.80288 8.32045 5.09016 9.33382 5.89242 9.78168C6.69467 10.2295 7.70804 9.94226 8.1559 9.14001C8.60394 8.33785 8.31666 7.32448 7.51423 6.87652ZM7.07362 8.6973C6.76155 8.52309 6.64985 8.12906 6.82406 7.81699C6.99827 7.50493 7.39247 7.39332 7.70436 7.56744C8.01643 7.74165 8.12804 8.13585 7.95392 8.44774C7.77981 8.75963 7.38551 8.87141 7.07362 8.6973Z" fill="#FFB23F"/>
<path d="M12.2387 15.3542C13.8928 16.2776 15.9899 15.6832 16.9134 14.029C17.8369 12.3747 17.2423 10.2776 15.5882 9.35423C13.9339 8.43072 11.8368 9.02509 10.9133 10.6794C9.98976 12.3337 10.5844 14.4307 12.2387 15.3542ZM15.202 10.0459C16.4747 10.7564 16.9322 12.3701 16.2217 13.6428C15.5112 14.9155 13.8975 15.373 12.6248 14.6625C11.3519 13.9519 10.8945 12.3382 11.605 11.0655C12.3155 9.79281 13.9291 9.33535 15.202 10.0459Z" fill="#FFB23F"/>
<path d="M13.1029 13.8069C13.9051 14.2548 14.9185 13.9675 15.3664 13.1652C15.8142 12.363 15.5269 11.3496 14.7247 10.9017C13.9224 10.4539 12.909 10.7411 12.4612 11.5434C12.0133 12.3457 12.3006 13.359 13.1029 13.8069ZM14.9149 11.5925C15.227 11.7667 15.3386 12.1609 15.1645 12.4728C14.9904 12.7847 14.5962 12.8965 14.2842 12.7223C13.9721 12.5481 13.8604 12.1541 14.0346 11.842C14.2088 11.53 14.6028 11.4183 14.9149 11.5925Z" fill="#FFB23F"/>
<path d="M20.4577 8.59303C20.1146 9.20756 19.3356 9.42824 18.7211 9.08518L15.1625 7.09857C14.1779 6.54893 13.0213 6.59752 12.1067 7.11977C12.0713 6.06719 11.5057 5.05717 10.5211 4.50753L6.96249 2.52092C6.34796 2.17786 6.12701 1.39895 6.47007 0.784426L6.63853 0.482664L5.77393 0L5.60547 0.301763C4.99626 1.39303 5.38846 2.77649 6.47973 3.38569L10.0384 5.3723C11.0566 5.94076 11.4225 7.23142 10.8541 8.24969L10.9377 8.29639L11.7187 8.73236L11.8023 8.77905C12.3708 7.76078 13.6614 7.39489 14.6797 7.96334L18.2384 9.94995C19.3296 10.5592 20.7131 10.167 21.3223 9.07569L21.4907 8.77393L20.6261 8.29126L20.4577 8.59303Z" fill="#FFB23F"/>
</svg>
