<svg width="270" height="250" viewBox="0 0 270 250" fill="none" xmlns="http://www.w3.org/2000/svg">
<rect width="270" height="250" rx="30" fill="#F5F7F7"/>
<rect width="270" height="250" rx="30" fill="url(#paint0_linear)"/>
<path d="M226.712 218.139L227.999 219.845L229.287 218.139L227.999 216.432L226.712 218.139Z" fill="#FFB23F"/>
<path d="M223.871 211.384C221.977 211.384 220.435 212.925 220.435 214.82C220.435 216.714 221.977 218.255 223.871 218.255C225.766 218.255 227.307 216.714 227.307 214.82C227.307 212.925 225.766 211.384 223.871 211.384ZM223.871 217.463C222.413 217.463 221.227 216.277 221.227 214.82C221.227 213.362 222.413 212.176 223.871 212.176C225.329 212.176 226.515 213.362 226.515 214.82C226.515 216.277 225.329 217.463 223.871 217.463Z" fill="#FFB23F"/>
<path d="M223.871 213.156C222.953 213.156 222.208 213.901 222.208 214.82C222.208 215.738 222.953 216.483 223.871 216.483C224.79 216.483 225.535 215.738 225.535 214.82C225.535 213.901 224.79 213.156 223.871 213.156ZM224.374 214.961C224.017 214.961 223.727 214.671 223.727 214.314C223.727 213.956 224.017 213.667 224.374 213.667C224.732 213.667 225.021 213.956 225.021 214.314C225.021 214.671 224.731 214.961 224.374 214.961Z" fill="#FFB23F"/>
<path d="M232.129 218.255C234.023 218.255 235.565 216.714 235.565 214.82C235.565 212.925 234.023 211.384 232.129 211.384C230.234 211.384 228.693 212.925 228.693 214.82C228.693 216.714 230.234 218.255 232.129 218.255ZM232.129 212.176C233.587 212.176 234.773 213.362 234.773 214.82C234.773 216.277 233.587 217.463 232.129 217.463C230.671 217.463 229.485 216.277 229.485 214.82C229.485 213.362 230.671 212.176 232.129 212.176Z" fill="#FFB23F"/>
<path d="M232.129 216.483C233.048 216.483 233.793 215.738 233.793 214.82C233.793 213.901 233.048 213.156 232.129 213.156C231.211 213.156 230.466 213.901 230.466 214.82C230.466 215.738 231.211 216.483 232.129 216.483ZM232.632 213.666C232.99 213.666 233.279 213.956 233.279 214.313C233.279 214.671 232.99 214.96 232.632 214.96C232.275 214.96 231.985 214.671 231.985 214.313C231.985 213.956 232.275 213.666 232.632 213.666Z" fill="#FFB23F"/>
<path d="M236.01 208.346C236.01 209.049 235.437 209.622 234.733 209.622H230.658C229.53 209.622 228.544 210.228 228 211.13C227.456 210.228 226.47 209.622 225.342 209.622H221.267C220.563 209.622 219.99 209.049 219.99 208.346V208H219V208.346C219 209.595 220.017 210.612 221.267 210.612H225.342C226.508 210.612 227.457 211.561 227.457 212.727H227.553H228.447H228.543C228.543 211.561 229.492 210.612 230.658 210.612H234.733C235.983 210.612 237 209.595 237 208.346V208H236.01V208.346Z" fill="#FFB23F"/>
<path d="M40.288 111.408L39.0006 113.114L37.7134 111.408L39.0006 109.701L40.288 111.408Z" fill="#FFB23F"/>
<path d="M43.129 104.653C45.0234 104.653 46.5648 106.194 46.5648 108.089C46.5648 109.983 45.0234 111.524 43.129 111.524C41.2344 111.524 39.693 109.983 39.693 108.089C39.693 106.194 41.2344 104.653 43.129 104.653ZM43.129 110.732C44.5866 110.732 45.7726 109.546 45.7726 108.089C45.7726 106.631 44.5866 105.445 43.129 105.445C41.6712 105.445 40.4852 106.631 40.4852 108.089C40.4852 109.546 41.6712 110.732 43.129 110.732Z" fill="#FFB23F"/>
<path d="M43.1285 106.425C44.0473 106.425 44.7921 107.17 44.7921 108.089C44.7921 109.007 44.0473 109.752 43.1285 109.752C42.2097 109.752 41.4649 109.007 41.4649 108.089C41.4647 107.17 42.2095 106.425 43.1285 106.425ZM42.6257 108.23C42.9831 108.23 43.2727 107.94 43.2727 107.583C43.2727 107.225 42.9829 106.936 42.6257 106.936C42.2683 106.936 41.9787 107.225 41.9787 107.583C41.9787 107.94 42.2685 108.23 42.6257 108.23Z" fill="#FFB23F"/>
<path d="M34.871 111.524C32.9766 111.524 31.4352 109.983 31.4352 108.089C31.4352 106.194 32.9766 104.653 34.871 104.653C36.7656 104.653 38.307 106.194 38.307 108.089C38.307 109.983 36.7656 111.524 34.871 111.524ZM34.871 105.445C33.4134 105.445 32.2274 106.631 32.2274 108.089C32.2274 109.546 33.4134 110.732 34.871 110.732C36.3288 110.732 37.5148 109.546 37.5148 108.089C37.5148 106.631 36.3288 105.445 34.871 105.445Z" fill="#FFB23F"/>
<path d="M34.8706 109.752C33.9518 109.752 33.207 109.007 33.207 108.089C33.207 107.17 33.9518 106.425 34.8706 106.425C35.7894 106.425 36.5342 107.17 36.5342 108.089C36.5342 109.007 35.7894 109.752 34.8706 109.752ZM34.3678 106.935C34.0104 106.935 33.7208 107.225 33.7208 107.582C33.7208 107.94 34.0104 108.229 34.3678 108.229C34.7252 108.229 35.0148 107.94 35.0148 107.582C35.0148 107.225 34.7252 106.935 34.3678 106.935Z" fill="#FFB23F"/>
<path d="M30.9902 101.615C30.9902 102.318 31.5628 102.891 32.2666 102.891H36.3422C37.4698 102.891 38.456 103.497 39 104.399C39.544 103.497 40.5302 102.891 41.6578 102.891H45.7334C46.4372 102.891 47.0098 102.318 47.0098 101.615V101.269H48V101.615C48 102.864 46.9832 103.881 45.7334 103.881H41.6578C40.4916 103.881 39.543 104.83 39.543 105.996H39.4472H38.5528H38.457C38.457 104.83 37.5084 103.881 36.3422 103.881H32.2666C31.0168 103.881 30 102.864 30 101.615V101.269H30.9902V101.615Z" fill="#FFB23F"/>
<path d="M191.166 39.4075L192.453 41.1143L193.74 39.4075L192.453 37.7007L191.166 39.4075Z" fill="#FFB23F"/>
<path d="M188.324 32.6527C186.43 32.6527 184.889 34.1939 184.889 36.0885C184.889 37.9831 186.43 39.5243 188.324 39.5243C190.219 39.5243 191.76 37.9831 191.76 36.0885C191.76 34.1939 190.219 32.6527 188.324 32.6527ZM188.324 38.7321C186.867 38.7321 185.681 37.5461 185.681 36.0885C185.681 34.6309 186.867 33.4449 188.324 33.4449C189.782 33.4449 190.968 34.6309 190.968 36.0885C190.968 37.5463 189.782 38.7321 188.324 38.7321Z" fill="#FFB23F"/>
<path d="M188.325 34.4248C187.406 34.4248 186.661 35.1696 186.661 36.0884C186.661 37.0072 187.406 37.752 188.325 37.752C189.244 37.752 189.989 37.0072 189.989 36.0884C189.989 35.1696 189.244 34.4248 188.325 34.4248ZM188.828 36.2294C188.47 36.2294 188.181 35.9398 188.181 35.5824C188.181 35.225 188.471 34.9354 188.828 34.9354C189.185 34.9354 189.475 35.2252 189.475 35.5824C189.475 35.9396 189.185 36.2294 188.828 36.2294Z" fill="#FFB23F"/>
<path d="M196.582 39.5243C198.477 39.5243 200.018 37.9831 200.018 36.0885C200.018 34.1939 198.477 32.6527 196.582 32.6527C194.688 32.6527 193.146 34.1939 193.146 36.0885C193.146 37.9831 194.688 39.5243 196.582 39.5243ZM196.582 33.4449C198.04 33.4449 199.226 34.6309 199.226 36.0885C199.226 37.5461 198.04 38.7321 196.582 38.7321C195.125 38.7321 193.939 37.5461 193.939 36.0885C193.939 34.6309 195.125 33.4449 196.582 33.4449Z" fill="#FFB23F"/>
<path d="M196.583 37.752C197.502 37.752 198.247 37.0072 198.247 36.0884C198.247 35.1696 197.502 34.4248 196.583 34.4248C195.664 34.4248 194.919 35.1696 194.919 36.0884C194.919 37.0072 195.664 37.752 196.583 37.752ZM197.086 34.9352C197.443 34.9352 197.733 35.225 197.733 35.5822C197.733 35.9394 197.443 36.2292 197.086 36.2292C196.728 36.2292 196.439 35.9396 196.439 35.5822C196.439 35.2248 196.728 34.9352 197.086 34.9352Z" fill="#FFB23F"/>
<path d="M200.463 29.6145C200.463 30.3183 199.891 30.8907 199.187 30.8907H195.111C193.984 30.8907 192.997 31.4969 192.453 32.3987C191.909 31.4969 190.923 30.8907 189.796 30.8907H185.72C185.016 30.8907 184.444 30.3183 184.444 29.6145V29.2689H183.453V29.6145C183.453 30.8643 184.47 31.8811 185.72 31.8811H189.796C190.962 31.8811 191.91 32.8297 191.91 33.9959H192.006H192.901H192.996C192.996 32.8297 193.945 31.8811 195.111 31.8811H199.187C200.437 31.8811 201.453 30.8643 201.453 29.6145V29.2689H200.463V29.6145Z" fill="#FFB23F"/>
<path d="M143.935 200.33L145.646 201.612L146.408 199.615L144.697 198.333L143.935 200.33Z" fill="#FFB23F"/>
<path d="M139.328 194.632C137.508 195.159 136.456 197.068 136.983 198.888C137.51 200.708 139.419 201.759 141.238 201.233C143.058 200.706 144.11 198.797 143.584 196.977C143.057 195.157 141.148 194.105 139.328 194.632ZM141.018 200.472C139.618 200.877 138.149 200.068 137.744 198.667C137.338 197.267 138.148 195.798 139.548 195.393C140.948 194.988 142.417 195.797 142.823 197.197C143.228 198.598 142.419 200.066 141.018 200.472Z" fill="#FFB23F"/>
<path d="M139.821 196.334C138.938 196.59 138.43 197.512 138.686 198.395C138.941 199.277 139.864 199.786 140.746 199.53C141.629 199.275 142.137 198.352 141.882 197.47C141.626 196.587 140.704 196.079 139.821 196.334ZM140.806 197.928C140.462 198.027 140.104 197.83 140.004 197.486C139.905 197.143 140.103 196.784 140.446 196.685C140.789 196.585 141.148 196.783 141.247 197.126C141.347 197.47 141.149 197.828 140.806 197.928Z" fill="#FFB23F"/>
<path d="M149.171 198.936C150.991 198.41 152.043 196.501 151.516 194.681C150.989 192.861 149.08 191.809 147.26 192.336C145.44 192.863 144.388 194.772 144.915 196.592C145.442 198.411 147.351 199.463 149.171 198.936ZM147.48 193.097C148.881 192.692 150.35 193.501 150.755 194.901C151.16 196.301 150.351 197.77 148.951 198.176C147.55 198.581 146.081 197.771 145.676 196.371C145.271 194.971 146.08 193.502 147.48 193.097Z" fill="#FFB23F"/>
<path d="M148.678 197.234C149.561 196.978 150.069 196.056 149.814 195.173C149.558 194.291 148.636 193.782 147.753 194.038C146.871 194.293 146.362 195.216 146.618 196.099C146.873 196.981 147.796 197.489 148.678 197.234ZM148.378 194.388C148.721 194.289 149.08 194.487 149.18 194.83C149.279 195.173 149.081 195.532 148.738 195.631C148.395 195.731 148.036 195.533 147.937 195.19C147.837 194.847 148.035 194.488 148.378 194.388Z" fill="#FFB23F"/>
<path d="M150.143 188.338C150.339 189.014 149.948 189.723 149.272 189.919L145.357 191.052C144.274 191.366 143.495 192.222 143.223 193.24C142.45 192.525 141.334 192.217 140.251 192.53L136.336 193.664C135.66 193.859 134.951 193.469 134.755 192.793L134.659 192.461L133.708 192.736L133.804 193.068C134.152 194.269 135.411 194.963 136.612 194.615L140.526 193.482C141.647 193.158 142.822 193.805 143.146 194.925L143.238 194.898L144.097 194.65L144.189 194.623C143.865 193.503 144.512 192.328 145.632 192.004L149.547 190.87C150.748 190.523 151.442 189.264 151.094 188.063L150.998 187.731L150.047 188.006L150.143 188.338Z" fill="#FFB23F"/>
<path d="M123.065 93.5995L121.354 94.881L120.592 92.8836L122.303 91.602L123.065 93.5995Z" fill="#FFB23F"/>
<path d="M127.672 87.901C129.492 88.4278 130.544 90.3368 130.017 92.1567C129.49 93.9766 127.581 95.0284 125.762 94.5016C123.942 93.9748 122.89 92.0658 123.416 90.2459C123.943 88.426 125.852 87.3742 127.672 87.901ZM125.982 93.7407C127.382 94.146 128.851 93.3365 129.256 91.9364C129.662 90.5363 128.852 89.0673 127.452 88.662C126.052 88.2566 124.583 89.0661 124.177 90.4662C123.772 91.8665 124.581 93.3353 125.982 93.7407Z" fill="#FFB23F"/>
<path d="M127.179 89.6032C128.062 89.8586 128.57 90.7812 128.314 91.6637C128.059 92.5463 127.136 93.0546 126.254 92.7991C125.371 92.5437 124.863 91.6211 125.118 90.7386C125.374 89.856 126.296 89.3476 127.179 89.6032ZM126.194 91.1968C126.538 91.2962 126.896 91.0985 126.996 90.7552C127.095 90.4119 126.897 90.0531 126.554 89.9538C126.211 89.8544 125.852 90.0523 125.753 90.3954C125.653 90.7385 125.851 91.0975 126.194 91.1968Z" fill="#FFB23F"/>
<path d="M117.829 92.2054C116.009 91.6787 114.957 89.7697 115.484 87.9498C116.011 86.1299 117.92 85.0781 119.74 85.6048C121.56 86.1316 122.612 88.0407 122.085 89.8605C121.558 91.6804 119.649 92.7323 117.829 92.2054ZM119.52 86.3658C118.119 85.9605 116.65 86.7699 116.245 88.1701C115.84 89.5702 116.649 91.0392 118.049 91.4445C119.45 91.8498 120.919 91.0404 121.324 89.6403C121.729 88.2402 120.92 86.7711 119.52 86.3658Z" fill="#FFB23F"/>
<path d="M118.322 90.5029C117.439 90.2475 116.931 89.3249 117.186 88.4424C117.442 87.5598 118.364 87.0515 119.247 87.307C120.129 87.5624 120.638 88.485 120.382 89.3675C120.127 90.2501 119.204 90.7584 118.322 90.5029ZM118.622 87.6574C118.279 87.558 117.92 87.7559 117.82 88.099C117.721 88.4421 117.919 88.801 118.262 88.9004C118.605 88.9998 118.964 88.8021 119.063 88.4588C119.163 88.1155 118.965 87.7568 118.622 87.6574Z" fill="#FFB23F"/>
<path d="M116.857 81.6073C116.661 82.2834 117.052 82.9924 117.728 83.1881L121.643 84.3214C122.726 84.6349 123.505 85.4914 123.777 86.5089C124.55 85.7939 125.666 85.4859 126.749 85.7994L130.664 86.9327C131.34 87.1284 132.049 86.7377 132.245 86.0617L132.341 85.7297L133.292 86.0051L133.196 86.337C132.848 87.5376 131.589 88.2315 130.388 87.884L126.474 86.7508C125.353 86.4265 124.178 87.0739 123.854 88.1941L123.762 88.1675L122.903 87.9188L122.811 87.8921C123.135 86.7719 122.488 85.597 121.368 85.2727L117.453 84.1395C116.252 83.7919 115.558 82.5325 115.906 81.332L116.002 81L116.953 81.2754L116.857 81.6073Z" fill="#FFB23F"/>
<path d="M108.389 21.5993L110.1 22.8808L110.862 20.8834L109.151 19.6019L108.389 21.5993Z" fill="#FFB23F"/>
<path d="M103.781 15.901C101.962 16.4277 100.909 18.3367 101.436 20.1566C101.963 21.9765 103.872 23.0283 105.692 22.5016C107.512 21.9748 108.564 20.0658 108.037 18.2459C107.51 16.426 105.601 15.3742 103.781 15.901ZM105.472 21.7406C104.072 22.1459 102.603 21.3365 102.197 19.9364C101.792 18.5362 102.601 17.0672 104.002 16.6619C105.402 16.2566 106.871 17.066 107.276 18.4661C107.682 19.8665 106.872 21.3353 105.472 21.7406Z" fill="#FFB23F"/>
<path d="M104.275 17.603C103.392 17.8585 102.884 18.781 103.139 19.6636C103.395 20.5462 104.317 21.0545 105.2 20.799C106.082 20.5435 106.591 19.621 106.335 18.7385C106.08 17.8558 105.157 17.3475 104.275 17.603ZM105.259 19.1967C104.916 19.296 104.557 19.0984 104.458 18.7551C104.358 18.4118 104.556 18.053 104.899 17.9537C105.243 17.8543 105.602 18.0522 105.701 18.3953C105.8 18.7384 105.602 19.0973 105.259 19.1967Z" fill="#FFB23F"/>
<path d="M113.624 20.2054C115.444 19.6786 116.496 17.7696 115.969 15.9497C115.443 14.1298 113.533 13.078 111.714 13.6047C109.894 14.1316 108.842 16.0406 109.369 17.8605C109.895 19.6803 111.805 20.7322 113.624 20.2054ZM111.934 14.3657C113.334 13.9604 114.803 14.7699 115.208 16.17C115.614 17.5701 114.804 19.0391 113.404 19.4444C112.004 19.8497 110.535 19.0403 110.13 17.6402C109.724 16.2401 110.534 14.7711 111.934 14.3657Z" fill="#FFB23F"/>
<path d="M113.132 18.5029C114.014 18.2474 114.523 17.3248 114.267 16.4423C114.012 15.5597 113.089 15.0514 112.207 15.3069C111.324 15.5623 110.816 16.4849 111.071 17.3674C111.327 18.25 112.249 18.7583 113.132 18.5029ZM112.832 15.6573C113.175 15.5579 113.534 15.7558 113.633 16.0989C113.732 16.442 113.535 16.8009 113.191 16.9003C112.848 16.9997 112.489 16.802 112.39 16.4587C112.291 16.1154 112.488 15.7567 112.832 15.6573Z" fill="#FFB23F"/>
<path d="M114.597 9.60724C114.792 10.2833 114.401 10.9923 113.725 11.188L109.811 12.3213C108.727 12.6348 107.949 13.4913 107.677 14.5088C106.904 13.7939 105.788 13.4858 104.705 13.7993L100.79 14.9326C100.114 15.1283 99.4044 14.7377 99.2087 14.0616L99.1126 13.7296L98.1615 14.005L98.2576 14.3369C98.6051 15.5375 99.8645 16.2314 101.065 15.8839L104.98 14.7507C106.1 14.4264 107.275 15.0738 107.599 16.194L107.691 16.1674L108.551 15.9187L108.643 15.8921C108.318 14.7718 108.966 13.5969 110.086 13.2726L114.001 12.1394C115.201 11.7918 115.895 10.5324 115.548 9.3319L115.452 8.99993L114.501 9.27526L114.597 9.60724Z" fill="#FFB23F"/>
<path d="M55.1123 213.245L55.4044 215.363L57.3603 214.5L57.0683 212.382L55.1123 213.245Z" fill="#FFB23F"/>
<path d="M55.9241 205.962C54.27 205.039 52.1728 205.633 51.2493 207.287C50.3258 208.942 50.9205 211.039 52.5746 211.962C54.2288 212.886 56.326 212.291 57.2495 210.637C58.173 208.983 57.5783 206.886 55.9241 205.962ZM52.9607 211.27C51.688 210.56 51.2305 208.946 51.941 207.674C52.6515 206.401 54.2652 205.943 55.5379 206.654C56.8108 207.365 57.2683 208.978 56.5578 210.251C55.8472 211.524 54.2336 211.981 52.9607 211.27Z" fill="#FFB23F"/>
<path d="M55.0607 207.51C54.2585 207.062 53.2451 207.349 52.7972 208.151C52.3494 208.954 52.6367 209.967 53.4389 210.415C54.2412 210.863 55.2546 210.576 55.7024 209.773C56.1504 208.971 55.8632 207.958 55.0607 207.51ZM54.6201 209.331C54.3081 209.156 54.1964 208.762 54.3706 208.45C54.5448 208.138 54.939 208.027 55.2509 208.201C55.5629 208.375 55.6745 208.769 55.5004 209.081C55.3263 209.393 54.932 209.505 54.6201 209.331Z" fill="#FFB23F"/>
<path d="M59.7852 215.988C61.4393 216.911 63.5364 216.317 64.4599 214.662C65.3834 213.008 64.7888 210.911 63.1347 209.988C61.4804 209.064 59.3833 209.658 58.4598 211.313C57.5363 212.967 58.1309 215.064 59.7852 215.988ZM62.7485 210.679C64.0212 211.39 64.4787 213.003 63.7682 214.276C63.0577 215.549 61.4441 216.006 60.1713 215.296C58.8985 214.585 58.441 212.972 59.1515 211.699C59.862 210.426 61.4756 209.969 62.7485 210.679Z" fill="#FFB23F"/>
<path d="M60.6494 214.44C61.4516 214.888 62.465 214.601 62.9129 213.799C63.3607 212.996 63.0734 211.983 62.2712 211.535C61.4689 211.087 60.4556 211.374 60.0077 212.177C59.5598 212.979 59.8471 213.992 60.6494 214.44ZM62.4614 212.226C62.7735 212.4 62.8851 212.794 62.711 213.106C62.5369 213.418 62.1427 213.53 61.8307 213.356C61.5186 213.181 61.4069 212.787 61.5811 212.475C61.7553 212.163 62.1494 212.052 62.4614 212.226Z" fill="#FFB23F"/>
<path d="M68.0042 209.226C67.6611 209.841 66.8821 210.062 66.2676 209.718L62.709 207.732C61.7244 207.182 60.5678 207.231 59.6532 207.753C59.6178 206.7 59.0522 205.69 58.0676 205.141L54.509 203.154C53.8945 202.811 53.6735 202.032 54.0166 201.418L54.185 201.116L53.3204 200.633L53.152 200.935C52.5428 202.026 52.935 203.41 54.0262 204.019L57.5849 206.006C58.6031 206.574 58.969 207.865 58.4006 208.883L58.4842 208.93L59.2652 209.366L59.3488 209.412C59.9173 208.394 61.2079 208.028 62.2262 208.597L65.7849 210.583C66.8761 211.192 68.2596 210.8 68.8688 209.709L69.0372 209.407L68.1726 208.925L68.0042 209.226Z" fill="#FFB23F"/>
<path d="M211.888 106.514L211.596 108.632L209.64 107.769L209.932 105.651L211.888 106.514Z" fill="#FFB23F"/>
<path d="M211.076 99.2312C212.73 98.3078 214.827 98.9022 215.751 100.556C216.674 102.211 216.08 104.308 214.425 105.231C212.771 106.155 210.674 105.56 209.751 103.906C208.827 102.252 209.422 100.155 211.076 99.2312ZM214.039 104.539C215.312 103.829 215.769 102.215 215.059 100.943C214.348 99.6699 212.735 99.2124 211.462 99.9229C210.189 100.634 209.732 102.247 210.442 103.52C211.153 104.793 212.766 105.25 214.039 104.539Z" fill="#FFB23F"/>
<path d="M211.939 100.779C212.742 100.331 213.755 100.618 214.203 101.42C214.651 102.223 214.363 103.236 213.561 103.684C212.759 104.132 211.745 103.845 211.298 103.042C210.85 102.24 211.137 101.227 211.939 100.779ZM212.38 102.6C212.692 102.425 212.804 102.031 212.629 101.719C212.455 101.407 212.061 101.296 211.749 101.47C211.437 101.644 211.325 102.038 211.5 102.35C211.674 102.662 212.068 102.774 212.38 102.6Z" fill="#FFB23F"/>
<path d="M207.215 109.256C205.561 110.18 203.464 109.586 202.54 107.931C201.617 106.277 202.211 104.18 203.865 103.257C205.52 102.333 207.617 102.927 208.54 104.582C209.464 106.236 208.869 108.333 207.215 109.256ZM204.251 103.948C202.979 104.659 202.521 106.272 203.232 107.545C203.942 108.818 205.556 109.275 206.829 108.565C208.102 107.854 208.559 106.241 207.849 104.968C207.138 103.695 205.524 103.238 204.251 103.948Z" fill="#FFB23F"/>
<path d="M206.351 107.709C205.548 108.157 204.535 107.87 204.087 107.067C203.639 106.265 203.927 105.252 204.729 104.804C205.531 104.356 206.544 104.643 206.992 105.446C207.44 106.248 207.153 107.261 206.351 107.709ZM204.539 105.495C204.227 105.669 204.115 106.063 204.289 106.375C204.463 106.687 204.857 106.799 205.169 106.625C205.481 106.45 205.593 106.056 205.419 105.744C205.245 105.432 204.851 105.321 204.539 105.495Z" fill="#FFB23F"/>
<path d="M198.996 102.495C199.339 103.11 200.118 103.331 200.732 102.987L204.291 101.001C205.276 100.451 206.432 100.5 207.347 101.022C207.382 99.9695 207.948 98.9595 208.932 98.4098L212.491 96.4232C213.106 96.0801 213.326 95.3012 212.983 94.6867L212.815 94.3849L213.68 93.9023L213.848 94.204C214.457 95.2953 214.065 96.6788 212.974 97.288L209.415 99.2746C208.397 99.843 208.031 101.134 208.599 102.152L208.516 102.199L207.735 102.635L207.651 102.681C207.083 101.663 205.792 101.297 204.774 101.866L201.215 103.852C200.124 104.461 198.74 104.069 198.131 102.978L197.963 102.676L198.827 102.194L198.996 102.495Z" fill="#FFB23F"/>
<path d="M19.5657 34.5139L19.8579 36.6318L21.8138 35.7689L21.5218 33.6512L19.5657 34.5139Z" fill="#FFB23F"/>
<path d="M20.3776 27.2311C18.7234 26.3077 16.6263 26.902 15.7028 28.5563C14.7793 30.2106 15.374 32.3077 17.0281 33.2311C18.6823 34.1546 20.7795 33.5602 21.703 31.9059C22.6265 30.2516 22.0318 28.1546 20.3776 27.2311ZM17.4142 32.5393C16.1415 31.8289 15.684 30.2152 16.3945 28.9425C17.105 27.6698 18.7187 27.2123 19.9914 27.9228C21.2643 28.6334 21.7217 30.2471 21.0113 31.5198C20.3007 32.7927 18.6871 33.2499 17.4142 32.5393Z" fill="#FFB23F"/>
<path d="M19.5142 28.7787C18.712 28.3308 17.6986 28.6181 17.2507 29.4204C16.8029 30.2226 17.0902 31.236 17.8924 31.6839C18.6947 32.1317 19.708 31.8445 20.1559 31.0422C20.6039 30.24 20.3167 29.2267 19.5142 28.7787ZM19.0736 30.5995C18.7615 30.4253 18.6498 30.0313 18.8241 29.7192C18.9983 29.4071 19.3925 29.2955 19.7044 29.4696C20.0164 29.6438 20.128 30.038 19.9539 30.3499C19.7798 30.6618 19.3855 30.7736 19.0736 30.5995Z" fill="#FFB23F"/>
<path d="M24.2387 37.2564C25.8928 38.1798 27.9899 37.5854 28.9134 35.9312C29.8369 34.2769 29.2423 32.1798 27.5882 31.2564C25.9339 30.3329 23.8368 30.9273 22.9133 32.5816C21.9898 34.2358 22.5844 36.3329 24.2387 37.2564ZM27.202 31.9481C28.4747 32.6586 28.9322 34.2723 28.2217 35.545C27.5112 36.8177 25.8975 37.2752 24.6248 36.5647C23.3519 35.8541 22.8945 34.2404 23.605 32.9677C24.3155 31.695 25.9291 31.2375 27.202 31.9481Z" fill="#FFB23F"/>
<path d="M25.1029 35.7091C25.9051 36.157 26.9185 35.8697 27.3664 35.0674C27.8142 34.2652 27.5269 33.2518 26.7247 32.8039C25.9224 32.3561 24.909 32.6434 24.4612 33.4456C24.0133 34.2479 24.3006 35.2613 25.1029 35.7091ZM26.9149 33.4947C27.227 33.6689 27.3386 34.0631 27.1645 34.375C26.9904 34.6869 26.5962 34.7988 26.2842 34.6246C25.9721 34.4503 25.8604 34.0563 26.0346 33.7442C26.2088 33.4322 26.6028 33.3205 26.9149 33.4947Z" fill="#FFB23F"/>
<path d="M32.4577 30.4952C32.1146 31.1097 31.3356 31.3304 30.7211 30.9874L27.1625 29.0008C26.1779 28.4511 25.0213 28.4997 24.1067 29.022C24.0713 27.9694 23.5057 26.9594 22.5211 26.4097L18.9625 24.4231C18.348 24.08 18.127 23.3011 18.4701 22.6866L18.6385 22.3849L17.7739 21.9022L17.6055 22.204C16.9963 23.2952 17.3885 24.6787 18.4797 25.2879L22.0384 27.2745C23.0566 27.8429 23.4225 29.1336 22.8541 30.1519L22.9377 30.1986L23.7187 30.6345L23.8023 30.6812C24.3708 29.663 25.6614 29.2971 26.6797 29.8655L30.2384 31.8521C31.3296 32.4613 32.7131 32.0692 33.3223 30.9779L33.4907 30.6761L32.6261 30.1935L32.4577 30.4952Z" fill="#FFB23F"/>
<path d="M22.925 156.612L22.6328 158.73L20.677 157.867L20.9689 155.749L22.925 156.612Z" fill="#FFB23F"/>
<path d="M22.1132 149.329C23.7673 148.406 25.8644 149 26.7879 150.654C27.7114 152.308 27.1168 154.405 25.4627 155.329C23.8084 156.252 21.7113 155.658 20.7878 154.004C19.8642 152.349 20.4589 150.252 22.1132 149.329ZM25.0765 154.637C26.3492 153.927 26.8067 152.313 26.0962 151.04C25.3857 149.768 23.772 149.31 22.4993 150.021C21.2264 150.731 20.769 152.345 21.4795 153.618C22.1901 154.89 23.8036 155.348 25.0765 154.637Z" fill="#FFB23F"/>
<path d="M22.9765 150.877C23.7788 150.429 24.7921 150.716 25.24 151.518C25.6878 152.32 25.4006 153.334 24.5983 153.782C23.7961 154.23 22.7827 153.942 22.3348 153.14C21.8868 152.338 22.1741 151.324 22.9765 150.877ZM23.4171 152.697C23.7292 152.523 23.8409 152.129 23.6667 151.817C23.4925 151.505 23.0983 151.393 22.7864 151.567C22.4743 151.742 22.3627 152.136 22.5368 152.448C22.7109 152.76 23.1052 152.871 23.4171 152.697Z" fill="#FFB23F"/>
<path d="M18.252 159.354C16.5979 160.278 14.5008 159.683 13.5773 158.029C12.6538 156.375 13.2484 154.278 14.9025 153.354C16.5568 152.431 18.654 153.025 19.5775 154.679C20.501 156.334 19.9063 158.431 18.252 159.354ZM15.2887 154.046C14.016 154.756 13.5585 156.37 14.269 157.643C14.9795 158.916 16.5932 159.373 17.8659 158.662C19.1388 157.952 19.5962 156.338 18.8857 155.066C18.1753 153.793 16.5616 153.335 15.2887 154.046Z" fill="#FFB23F"/>
<path d="M17.3879 157.807C16.5856 158.255 15.5722 157.967 15.1244 157.165C14.6765 156.363 14.9638 155.35 15.766 154.902C16.5683 154.454 17.5817 154.741 18.0295 155.543C18.4774 156.346 18.1901 157.359 17.3879 157.807ZM15.5758 155.592C15.2637 155.767 15.1521 156.161 15.3263 156.473C15.5004 156.785 15.8945 156.897 16.2066 156.722C16.5186 156.548 16.6303 156.154 16.4561 155.842C16.2819 155.53 15.8879 155.418 15.5758 155.592Z" fill="#FFB23F"/>
<path d="M10.033 152.593C10.3761 153.208 11.1551 153.428 11.7696 153.085L15.3282 151.099C16.3128 150.549 17.4694 150.598 18.384 151.12C18.4194 150.067 18.985 149.057 19.9696 148.508L23.5282 146.521C24.1428 146.178 24.3637 145.399 24.0207 144.784L23.8522 144.483L24.7168 144L24.8853 144.302C25.4945 145.393 25.1023 146.776 24.011 147.386L20.4524 149.372C19.4341 149.941 19.0682 151.231 19.6366 152.25L19.553 152.296L18.772 152.732L18.6884 152.779C18.1199 151.761 16.8293 151.395 15.811 151.963L12.2524 153.95C11.1611 154.559 9.77765 154.167 9.16844 153.076L8.99998 152.774L9.86458 152.291L10.033 152.593Z" fill="#FFB23F"/>
<path d="M237.566 155.612L237.858 157.73L239.814 156.867L239.522 154.749L237.566 155.612Z" fill="#FFB23F"/>
<path d="M238.378 148.329C236.723 147.406 234.626 148 233.703 149.654C232.779 151.308 233.374 153.405 235.028 154.329C236.682 155.252 238.779 154.658 239.703 153.004C240.626 151.349 240.032 149.252 238.378 148.329ZM235.414 153.637C234.141 152.927 233.684 151.313 234.395 150.04C235.105 148.768 236.719 148.31 237.991 149.021C239.264 149.731 239.722 151.345 239.011 152.618C238.301 153.89 236.687 154.348 235.414 153.637Z" fill="#FFB23F"/>
<path d="M237.514 149.877C236.712 149.429 235.699 149.716 235.251 150.518C234.803 151.32 235.09 152.334 235.892 152.782C236.695 153.23 237.708 152.942 238.156 152.14C238.604 151.338 238.317 150.324 237.514 149.877ZM237.074 151.697C236.762 151.523 236.65 151.129 236.824 150.817C236.998 150.505 237.392 150.393 237.704 150.567C238.016 150.742 238.128 151.136 237.954 151.448C237.78 151.76 237.386 151.871 237.074 151.697Z" fill="#FFB23F"/>
<path d="M242.239 158.354C243.893 159.278 245.99 158.683 246.913 157.029C247.837 155.375 247.242 153.278 245.588 152.354C243.934 151.431 241.837 152.025 240.913 153.679C239.99 155.334 240.584 157.431 242.239 158.354ZM245.202 153.046C246.475 153.756 246.932 155.37 246.222 156.643C245.511 157.916 243.898 158.373 242.625 157.662C241.352 156.952 240.894 155.338 241.605 154.066C242.315 152.793 243.929 152.335 245.202 153.046Z" fill="#FFB23F"/>
<path d="M243.103 156.807C243.905 157.255 244.918 156.967 245.366 156.165C245.814 155.363 245.527 154.35 244.725 153.902C243.922 153.454 242.909 153.741 242.461 154.543C242.013 155.346 242.301 156.359 243.103 156.807ZM244.915 154.592C245.227 154.767 245.339 155.161 245.164 155.473C244.99 155.785 244.596 155.897 244.284 155.722C243.972 155.548 243.86 155.154 244.035 154.842C244.209 154.53 244.603 154.418 244.915 154.592Z" fill="#FFB23F"/>
<path d="M250.458 151.593C250.115 152.208 249.336 152.428 248.721 152.085L245.162 150.099C244.178 149.549 243.021 149.598 242.107 150.12C242.071 149.067 241.506 148.057 240.521 147.508L236.962 145.521C236.348 145.178 236.127 144.399 236.47 143.784L236.639 143.483L235.774 143L235.605 143.302C234.996 144.393 235.388 145.776 236.48 146.386L240.038 148.372C241.057 148.941 241.423 150.231 240.854 151.25L240.938 151.296L241.719 151.732L241.802 151.779C242.371 150.761 243.661 150.395 244.68 150.963L248.238 152.95C249.33 153.559 250.713 153.167 251.322 152.076L251.491 151.774L250.626 151.291L250.458 151.593Z" fill="#FFB23F"/>
<defs>
<linearGradient id="paint0_linear" x1="1.23596e-06" y1="10" x2="270" y2="250" gradientUnits="userSpaceOnUse">
<stop stop-color="#FFD653"/>
<stop offset="1" stop-color="#EF4B23"/>
</linearGradient>
</defs>
</svg>
