<svg width="18" height="18" viewBox="0 0 18 18" fill="none" xmlns="http://www.w3.org/2000/svg">
<path d="M17.6904 16.2973L14.4619 13.0909C16.9828 9.86241 16.7174 5.2629 13.8206 2.36609C12.2948 0.840295 10.2604 0 8.09337 0C5.92629 0 3.89189 0.840295 2.36609 2.36609C0.840295 3.89189 0 5.92629 0 8.09337C0 10.2604 0.840295 12.2948 2.36609 13.8206C3.89189 15.3464 5.92629 16.1867 8.09337 16.1867C9.88452 16.1867 11.6536 15.5897 13.0688 14.4619L16.2752 17.7125C16.4742 17.9115 16.7174 18 16.9828 18C17.2482 18 17.4914 17.8894 17.6904 17.7125C18.0885 17.3366 18.0885 16.6953 17.6904 16.2973ZM14.1966 8.09337C14.1966 9.72973 13.5553 11.2555 12.4054 12.4054C11.2555 13.5553 9.70762 14.1966 8.09337 14.1966C6.47912 14.1966 4.9312 13.5553 3.78133 12.4054C2.63145 11.2555 1.99017 9.70762 1.99017 8.09337C1.99017 6.457 2.63145 4.9312 3.78133 3.78133C4.9312 2.63145 6.47912 1.99017 8.09337 1.99017C9.72973 1.99017 11.2555 2.63145 12.4054 3.78133C13.5553 4.9312 14.1966 6.457 14.1966 8.09337Z" fill="#11261C"/>
</svg>
