<svg width="15" height="21" viewBox="0 0 15 21" fill="none" xmlns="http://www.w3.org/2000/svg">
<path d="M13.0392 0H1.96078C0.882353 0 0 0.913043 0 2.02899V19.7319C0 20.2138 0.269608 20.6703 0.686275 20.8732C1.12745 21.0761 1.61765 21.0254 1.98529 20.721L2.0098 20.6957L7.5 15.9022L12.9902 20.6957L13.0147 20.721C13.2353 20.8986 13.5049 21 13.7745 21C13.9461 21 14.1422 20.9493 14.3137 20.8478C14.7304 20.6449 15 20.1884 15 19.7065V2.02899C15 0.913043 14.1176 0 13.0392 0Z" fill="#F5F7F7"/>
<path d="M13.0392 0H1.96078C0.882353 0 0 0.913043 0 2.02899V19.7319C0 20.2138 0.269608 20.6703 0.686275 20.8732C1.12745 21.0761 1.61765 21.0254 1.98529 20.721L2.0098 20.6957L7.5 15.9022L12.9902 20.6957L13.0147 20.721C13.2353 20.8986 13.5049 21 13.7745 21C13.9461 21 14.1422 20.9493 14.3137 20.8478C14.7304 20.6449 15 20.1884 15 19.7065V2.02899C15 0.913043 14.1176 0 13.0392 0Z" fill="url(#flagId)"/>
<defs>
<linearGradient id="flagId" x1="6.86646e-08" y1="0.84" x2="19.9551" y2="12.5714" gradientUnits="userSpaceOnUse">
<stop stop-color="#8BF3E1"/>
<stop offset="1" stop-color="#0C959D"/>
</linearGradient>
</defs>
</svg>
