<svg width="22" height="22" viewBox="0 0 22 22" fill="none" xmlns="http://www.w3.org/2000/svg">
<path d="M10.6884 21C10.599 21 10.5099 20.9904 10.4226 20.9715L7.41977 20.3214C7.25913 20.2867 7.10689 20.2207 6.97177 20.1272C6.83664 20.0337 6.72128 19.9144 6.63227 19.7762C6.54327 19.6381 6.48236 19.4837 6.45305 19.322C6.42373 19.1603 6.42657 18.9944 6.46141 18.8338L6.74956 17.5081C6.75821 17.4683 6.75476 17.4267 6.73966 17.3888C6.72456 17.3509 6.69849 17.3184 6.66479 17.2954C6.62941 17.2648 6.58533 17.2462 6.53879 17.2421C6.49225 17.238 6.44559 17.2486 6.40541 17.2724L5.26327 18.006C4.98404 18.1851 4.64525 18.2462 4.32107 18.1759C3.9969 18.1057 3.71376 17.9099 3.53365 17.6313L1.87098 15.0518C1.78193 14.9137 1.721 14.7594 1.69166 14.5977C1.66233 14.436 1.66517 14.2702 1.70002 14.1096C1.73487 13.949 1.80104 13.7969 1.89476 13.6619C1.98848 13.5269 2.10789 13.4117 2.24617 13.323L3.38857 12.5894C3.42306 12.5675 3.45026 12.5359 3.46668 12.4986C3.48309 12.4612 3.48798 12.4198 3.48071 12.3796C3.47729 12.3332 3.45937 12.2891 3.4295 12.2535C3.39962 12.2179 3.3593 12.1925 3.31424 12.1811L1.98629 11.8934C1.82571 11.8588 1.67354 11.7928 1.53847 11.6993C1.40341 11.6058 1.2881 11.4866 1.19914 11.3484C1.11019 11.2103 1.04932 11.0561 1.02003 10.8944C0.99074 10.7328 0.993598 10.5669 1.02844 10.4064L1.67726 7.42009C1.7125 7.25788 1.77967 7.1043 1.87485 6.9683C1.97004 6.8323 2.09134 6.7166 2.23168 6.62794C2.37203 6.53929 2.52861 6.47945 2.69231 6.45192C2.85601 6.42439 3.02356 6.4297 3.18518 6.46757L4.50041 6.77455C4.54324 6.78481 4.58822 6.78123 4.62889 6.7643C4.66955 6.74738 4.7038 6.71799 4.7267 6.68037C4.75585 6.64391 4.77346 6.59957 4.77727 6.55305C4.78108 6.50652 4.77091 6.45991 4.74807 6.41919L3.99948 5.25796C3.91045 5.11981 3.84953 4.96546 3.8202 4.80375C3.79088 4.64203 3.79372 4.47612 3.82857 4.3155C3.86341 4.15488 3.92958 4.00271 4.02329 3.86769C4.11699 3.73266 4.2364 3.61744 4.37468 3.5286L6.95879 1.86897C7.23811 1.69029 7.5768 1.62941 7.90087 1.69961C8.22494 1.76981 8.50807 1.9654 8.68841 2.24366L9.42353 3.38402C9.44587 3.41865 9.47793 3.44591 9.51569 3.46239C9.55346 3.47888 9.59525 3.48384 9.63583 3.47667C9.68215 3.47317 9.72623 3.4553 9.76191 3.42554C9.7976 3.39579 9.8231 3.35565 9.83488 3.31071L10.123 1.98503C10.1938 1.6609 10.3903 1.37811 10.6694 1.19876C10.9485 1.0194 11.2874 0.95814 11.6116 1.02843L14.6144 1.67854C14.7751 1.71326 14.9273 1.77929 15.0624 1.87285C15.1975 1.96641 15.3128 2.08567 15.4018 2.22381C15.4908 2.36195 15.5517 2.51627 15.581 2.67796C15.6104 2.83965 15.6076 3.00553 15.5728 3.16614L15.291 4.46278C15.2818 4.50466 15.2859 4.54837 15.3027 4.5878C15.3196 4.62724 15.3483 4.66042 15.385 4.68271L15.4371 4.71275C15.4705 4.73267 15.5087 4.7429 15.5475 4.74227C15.5863 4.74164 15.6242 4.73018 15.6568 4.70918L16.7709 3.99343C17.0504 3.81484 17.3891 3.75406 17.7131 3.82435C18.0372 3.89465 18.3203 4.09032 18.5006 4.36863L20.1638 6.94767V6.94819C20.2528 7.08636 20.3136 7.24072 20.3429 7.40244C20.3721 7.56416 20.3692 7.73006 20.3343 7.89065C20.2993 8.05124 20.233 8.20336 20.1392 8.3383C20.0454 8.47323 19.9259 8.58834 19.7875 8.67703L18.6716 9.39382C18.6349 9.4169 18.6065 9.45103 18.5905 9.49129C18.5745 9.53156 18.5717 9.57586 18.5825 9.61782C18.5902 9.65854 18.6094 9.69623 18.6377 9.72651C18.666 9.75679 18.7023 9.77842 18.7424 9.78888L20.0701 10.0994C20.3891 10.1751 20.6658 10.3726 20.8412 10.6496C21.0166 10.9265 21.0768 11.2611 21.0088 11.5819L20.3547 14.5916C20.3197 14.7522 20.2535 14.9043 20.1598 15.0393C20.066 15.1743 19.9466 15.2895 19.8083 15.3784C19.67 15.4672 19.5156 15.5279 19.3538 15.5571C19.1921 15.5862 19.0262 15.5832 18.8656 15.5482L17.5384 15.2611C17.498 15.2518 17.4557 15.255 17.4171 15.2702C17.3785 15.2854 17.3454 15.3118 17.322 15.3461C17.292 15.3811 17.2737 15.4246 17.2698 15.4706C17.2659 15.5165 17.2765 15.5626 17.3002 15.6022L18.0353 16.742C18.1243 16.8801 18.1852 17.0345 18.2145 17.1962C18.2438 17.3579 18.2409 17.5237 18.206 17.6843C18.1711 17.8449 18.1049 17.997 18.0111 18.132C17.9173 18.267 17.7979 18.3821 17.6596 18.4708L15.0754 20.131C14.796 20.3096 14.4572 20.3704 14.1331 20.3001C13.809 20.2298 13.5259 20.0341 13.3456 19.7558L12.5954 18.592C12.572 18.555 12.5375 18.5263 12.4968 18.5102C12.456 18.4941 12.4112 18.4914 12.3689 18.5024C12.3292 18.5109 12.2927 18.5305 12.2637 18.5589C12.2347 18.5873 12.2143 18.6233 12.2049 18.6628L11.9112 20.0144C11.8501 20.2934 11.6956 20.5432 11.4733 20.7225C11.2509 20.9017 10.974 20.9996 10.6884 21ZM6.51897 16.1957C6.70784 16.1974 6.89402 16.2408 7.06426 16.3226C7.23449 16.4044 7.38459 16.5228 7.50387 16.6693C7.62315 16.8157 7.70869 16.9867 7.75439 17.1699C7.80008 17.3532 7.80482 17.5443 7.76826 17.7296L7.48012 19.0553C7.47437 19.0819 7.47392 19.1093 7.47881 19.136C7.48371 19.1628 7.49384 19.1883 7.50863 19.2111C7.52353 19.2342 7.54284 19.2542 7.56547 19.2698C7.5881 19.2854 7.61359 19.2964 7.64049 19.3022L10.6433 19.9523C10.6701 19.9583 10.6978 19.9589 10.7249 19.9542C10.7519 19.9494 10.7777 19.9394 10.8009 19.9246C10.824 19.9099 10.844 19.8907 10.8598 19.8682C10.8755 19.8457 10.8866 19.8203 10.8925 19.7935L11.1862 18.4413C11.235 18.215 11.3459 18.0067 11.5064 17.8398C11.6669 17.6729 11.8707 17.554 12.0949 17.4965C12.1102 17.4924 12.1347 17.4868 12.1502 17.4842C12.3995 17.4258 12.6609 17.4466 12.8978 17.5439C13.1347 17.6412 13.3353 17.8101 13.4715 18.0269L14.2219 19.1907C14.2368 19.2139 14.2561 19.234 14.2787 19.2497C14.3014 19.2655 14.3269 19.2766 14.3539 19.2824C14.3808 19.2882 14.4086 19.2886 14.4358 19.2836C14.4629 19.2787 14.4887 19.2683 14.5119 19.2533L17.0957 17.5937C17.1187 17.5791 17.1386 17.56 17.1543 17.5377C17.1699 17.5153 17.181 17.4901 17.1869 17.4635C17.1927 17.4369 17.1933 17.4093 17.1885 17.3825C17.1837 17.3556 17.1736 17.33 17.1589 17.3071L16.4235 16.1667C16.2888 15.9589 16.2192 15.7156 16.2236 15.468C16.228 15.2205 16.3062 14.9798 16.4482 14.7769C16.5883 14.5671 16.7879 14.404 17.0215 14.3086C17.2551 14.2133 17.5119 14.19 17.7588 14.2419L19.086 14.529C19.1128 14.535 19.1406 14.5357 19.1677 14.531C19.1947 14.5263 19.2206 14.5163 19.2438 14.5015C19.267 14.4868 19.287 14.4675 19.3028 14.445C19.3185 14.4224 19.3296 14.397 19.3355 14.3701L19.9896 11.3604C20.0007 11.3071 19.9906 11.2515 19.9613 11.2056C19.932 11.1596 19.8859 11.127 19.8328 11.1145L18.5046 10.804C18.2646 10.7463 18.0468 10.6196 17.878 10.4395C17.7091 10.2594 17.5967 10.0339 17.5545 9.79068C17.5124 9.54747 17.5423 9.29724 17.6407 9.07085C17.739 8.84445 17.9015 8.6518 18.1081 8.51666L19.2245 7.79935C19.2475 7.78473 19.2674 7.76568 19.2829 7.74331C19.2985 7.72093 19.3094 7.69567 19.3151 7.66902C19.321 7.64233 19.3216 7.61473 19.3168 7.58782C19.312 7.56091 19.3019 7.53522 19.2871 7.51222L17.6239 4.93369C17.5937 4.88721 17.5465 4.85451 17.4923 4.84269C17.4382 4.83087 17.3815 4.84089 17.3348 4.87057L16.2206 5.58632C16.0253 5.7125 15.7987 5.78155 15.5662 5.78569C15.3338 5.78983 15.1048 5.72888 14.9051 5.60974C14.6661 5.48035 14.4753 5.27713 14.3613 5.03041C14.2472 4.78368 14.216 4.5067 14.2723 4.24079L14.5541 2.94465C14.5656 2.89065 14.5551 2.8343 14.525 2.788C14.495 2.7417 14.4477 2.70924 14.3937 2.69775L11.3909 2.04764C11.3641 2.04134 11.3363 2.04046 11.3091 2.04508C11.282 2.04969 11.256 2.05969 11.2328 2.0745C11.2096 2.0893 11.1896 2.10861 11.1739 2.13127C11.1583 2.15394 11.1473 2.17951 11.1417 2.20648L10.8536 3.53216C10.7973 3.77501 10.671 3.99604 10.4905 4.16794C10.3099 4.33985 10.083 4.45509 9.83768 4.49944C9.59236 4.5438 9.33943 4.51531 9.11012 4.4175C8.88082 4.3197 8.68519 4.15685 8.54741 3.9491L7.81228 2.80874C7.79736 2.78559 7.77801 2.76561 7.75535 2.74995C7.73268 2.73429 7.70715 2.72326 7.68022 2.71749C7.65328 2.71172 7.62547 2.71133 7.59838 2.71633C7.57129 2.72133 7.54546 2.73163 7.52236 2.74663L4.93825 4.40626C4.91529 4.42094 4.89546 4.44001 4.87989 4.46238C4.86432 4.48474 4.8533 4.50995 4.84749 4.53657C4.84167 4.5632 4.84116 4.59071 4.84599 4.61752C4.85082 4.64434 4.86089 4.66995 4.87563 4.69287L5.6245 5.85461C5.7511 6.0497 5.82046 6.27639 5.82469 6.50893C5.82892 6.74146 5.76785 6.97052 5.64842 7.17009C5.51648 7.40993 5.30992 7.60018 5.06007 7.71199C4.81021 7.8238 4.53071 7.85107 4.26396 7.78965L2.94822 7.48267C2.92107 7.47641 2.89295 7.47556 2.86548 7.48019C2.838 7.48482 2.81171 7.49484 2.78811 7.50966C2.76471 7.52435 2.74449 7.54359 2.72866 7.56623C2.71283 7.58888 2.70172 7.61448 2.69597 7.64151L2.04712 10.6273C2.04131 10.654 2.04084 10.6816 2.04572 10.7085C2.05061 10.7354 2.06076 10.761 2.07559 10.784C2.09042 10.8069 2.10964 10.8267 2.13215 10.8422C2.15465 10.8577 2.17999 10.8686 2.20672 10.8743L3.53492 11.1619C3.77801 11.2176 3.99939 11.3435 4.1716 11.5239C4.34381 11.7043 4.45927 11.9313 4.50367 12.1767C4.54807 12.4221 4.51945 12.6751 4.42135 12.9044C4.32326 13.1337 4.16002 13.3292 3.95186 13.4665L2.80973 14.2001C2.78678 14.2148 2.76695 14.2339 2.75137 14.2562C2.7358 14.2786 2.72479 14.3038 2.71897 14.3304C2.71316 14.3571 2.71265 14.3846 2.71748 14.4114C2.7223 14.4382 2.73238 14.4638 2.74711 14.4867L4.41005 17.0663C4.42487 17.0895 4.44415 17.1096 4.46677 17.1253C4.48939 17.141 4.5149 17.1521 4.54183 17.158C4.56877 17.1638 4.59659 17.1642 4.62368 17.1592C4.65078 17.1542 4.67663 17.1439 4.69972 17.1289L5.84211 16.3953C6.04383 16.2651 6.27883 16.1958 6.51894 16.1957H6.51897Z" fill="#F5F7F7"/>
<path d="M10.6884 21C10.599 21 10.5099 20.9904 10.4226 20.9715L7.41977 20.3214C7.25913 20.2867 7.10689 20.2207 6.97177 20.1272C6.83664 20.0337 6.72128 19.9144 6.63227 19.7762C6.54327 19.6381 6.48236 19.4837 6.45305 19.322C6.42373 19.1603 6.42657 18.9944 6.46141 18.8338L6.74956 17.5081C6.75821 17.4683 6.75476 17.4267 6.73966 17.3888C6.72456 17.3509 6.69849 17.3184 6.66479 17.2954C6.62941 17.2648 6.58533 17.2462 6.53879 17.2421C6.49225 17.238 6.44559 17.2486 6.40541 17.2724L5.26327 18.006C4.98404 18.1851 4.64525 18.2462 4.32107 18.1759C3.9969 18.1057 3.71376 17.9099 3.53365 17.6313L1.87098 15.0518C1.78193 14.9137 1.721 14.7594 1.69166 14.5977C1.66233 14.436 1.66517 14.2702 1.70002 14.1096C1.73487 13.949 1.80104 13.7969 1.89476 13.6619C1.98848 13.5269 2.10789 13.4117 2.24617 13.323L3.38857 12.5894C3.42306 12.5675 3.45026 12.5359 3.46668 12.4986C3.48309 12.4612 3.48798 12.4198 3.48071 12.3796C3.47729 12.3332 3.45937 12.2891 3.4295 12.2535C3.39962 12.2179 3.3593 12.1925 3.31424 12.1811L1.98629 11.8934C1.82571 11.8588 1.67354 11.7928 1.53847 11.6993C1.40341 11.6058 1.2881 11.4866 1.19914 11.3484C1.11019 11.2103 1.04932 11.0561 1.02003 10.8944C0.99074 10.7328 0.993598 10.5669 1.02844 10.4064L1.67726 7.42009C1.7125 7.25788 1.77967 7.1043 1.87485 6.9683C1.97004 6.8323 2.09134 6.7166 2.23168 6.62794C2.37203 6.53929 2.52861 6.47945 2.69231 6.45192C2.85601 6.42439 3.02356 6.4297 3.18518 6.46757L4.50041 6.77455C4.54324 6.78481 4.58822 6.78123 4.62889 6.7643C4.66955 6.74738 4.7038 6.71799 4.7267 6.68037C4.75585 6.64391 4.77346 6.59957 4.77727 6.55305C4.78108 6.50652 4.77091 6.45991 4.74807 6.41919L3.99948 5.25796C3.91045 5.11981 3.84953 4.96546 3.8202 4.80375C3.79088 4.64203 3.79372 4.47612 3.82857 4.3155C3.86341 4.15488 3.92958 4.00271 4.02329 3.86769C4.11699 3.73266 4.2364 3.61744 4.37468 3.5286L6.95879 1.86897C7.23811 1.69029 7.5768 1.62941 7.90087 1.69961C8.22494 1.76981 8.50807 1.9654 8.68841 2.24366L9.42353 3.38402C9.44587 3.41865 9.47793 3.44591 9.51569 3.46239C9.55346 3.47888 9.59525 3.48384 9.63583 3.47667C9.68215 3.47317 9.72623 3.4553 9.76191 3.42554C9.7976 3.39579 9.8231 3.35565 9.83488 3.31071L10.123 1.98503C10.1938 1.6609 10.3903 1.37811 10.6694 1.19876C10.9485 1.0194 11.2874 0.95814 11.6116 1.02843L14.6144 1.67854C14.7751 1.71326 14.9273 1.77929 15.0624 1.87285C15.1975 1.96641 15.3128 2.08567 15.4018 2.22381C15.4908 2.36195 15.5517 2.51627 15.581 2.67796C15.6104 2.83965 15.6076 3.00553 15.5728 3.16614L15.291 4.46278C15.2818 4.50466 15.2859 4.54837 15.3027 4.5878C15.3196 4.62724 15.3483 4.66042 15.385 4.68271L15.4371 4.71275C15.4705 4.73267 15.5087 4.7429 15.5475 4.74227C15.5863 4.74164 15.6242 4.73018 15.6568 4.70918L16.7709 3.99343C17.0504 3.81484 17.3891 3.75406 17.7131 3.82435C18.0372 3.89465 18.3203 4.09032 18.5006 4.36863L20.1638 6.94767V6.94819C20.2528 7.08636 20.3136 7.24072 20.3429 7.40244C20.3721 7.56416 20.3692 7.73006 20.3343 7.89065C20.2993 8.05124 20.233 8.20336 20.1392 8.3383C20.0454 8.47323 19.9259 8.58834 19.7875 8.67703L18.6716 9.39382C18.6349 9.4169 18.6065 9.45103 18.5905 9.49129C18.5745 9.53156 18.5717 9.57586 18.5825 9.61782C18.5902 9.65854 18.6094 9.69623 18.6377 9.72651C18.666 9.75679 18.7023 9.77842 18.7424 9.78888L20.0701 10.0994C20.3891 10.1751 20.6658 10.3726 20.8412 10.6496C21.0166 10.9265 21.0768 11.2611 21.0088 11.5819L20.3547 14.5916C20.3197 14.7522 20.2535 14.9043 20.1598 15.0393C20.066 15.1743 19.9466 15.2895 19.8083 15.3784C19.67 15.4672 19.5156 15.5279 19.3538 15.5571C19.1921 15.5862 19.0262 15.5832 18.8656 15.5482L17.5384 15.2611C17.498 15.2518 17.4557 15.255 17.4171 15.2702C17.3785 15.2854 17.3454 15.3118 17.322 15.3461C17.292 15.3811 17.2737 15.4246 17.2698 15.4706C17.2659 15.5165 17.2765 15.5626 17.3002 15.6022L18.0353 16.742C18.1243 16.8801 18.1852 17.0345 18.2145 17.1962C18.2438 17.3579 18.2409 17.5237 18.206 17.6843C18.1711 17.8449 18.1049 17.997 18.0111 18.132C17.9173 18.267 17.7979 18.3821 17.6596 18.4708L15.0754 20.131C14.796 20.3096 14.4572 20.3704 14.1331 20.3001C13.809 20.2298 13.5259 20.0341 13.3456 19.7558L12.5954 18.592C12.572 18.555 12.5375 18.5263 12.4968 18.5102C12.456 18.4941 12.4112 18.4914 12.3689 18.5024C12.3292 18.5109 12.2927 18.5305 12.2637 18.5589C12.2347 18.5873 12.2143 18.6233 12.2049 18.6628L11.9112 20.0144C11.8501 20.2934 11.6956 20.5432 11.4733 20.7225C11.2509 20.9017 10.974 20.9996 10.6884 21ZM6.51897 16.1957C6.70784 16.1974 6.89402 16.2408 7.06426 16.3226C7.23449 16.4044 7.38459 16.5228 7.50387 16.6693C7.62315 16.8157 7.70869 16.9867 7.75439 17.1699C7.80008 17.3532 7.80482 17.5443 7.76826 17.7296L7.48012 19.0553C7.47437 19.0819 7.47392 19.1093 7.47881 19.136C7.48371 19.1628 7.49384 19.1883 7.50863 19.2111C7.52353 19.2342 7.54284 19.2542 7.56547 19.2698C7.5881 19.2854 7.61359 19.2964 7.64049 19.3022L10.6433 19.9523C10.6701 19.9583 10.6978 19.9589 10.7249 19.9542C10.7519 19.9494 10.7777 19.9394 10.8009 19.9246C10.824 19.9099 10.844 19.8907 10.8598 19.8682C10.8755 19.8457 10.8866 19.8203 10.8925 19.7935L11.1862 18.4413C11.235 18.215 11.3459 18.0067 11.5064 17.8398C11.6669 17.6729 11.8707 17.554 12.0949 17.4965C12.1102 17.4924 12.1347 17.4868 12.1502 17.4842C12.3995 17.4258 12.6609 17.4466 12.8978 17.5439C13.1347 17.6412 13.3353 17.8101 13.4715 18.0269L14.2219 19.1907C14.2368 19.2139 14.2561 19.234 14.2787 19.2497C14.3014 19.2655 14.3269 19.2766 14.3539 19.2824C14.3808 19.2882 14.4086 19.2886 14.4358 19.2836C14.4629 19.2787 14.4887 19.2683 14.5119 19.2533L17.0957 17.5937C17.1187 17.5791 17.1386 17.56 17.1543 17.5377C17.1699 17.5153 17.181 17.4901 17.1869 17.4635C17.1927 17.4369 17.1933 17.4093 17.1885 17.3825C17.1837 17.3556 17.1736 17.33 17.1589 17.3071L16.4235 16.1667C16.2888 15.9589 16.2192 15.7156 16.2236 15.468C16.228 15.2205 16.3062 14.9798 16.4482 14.7769C16.5883 14.5671 16.7879 14.404 17.0215 14.3086C17.2551 14.2133 17.5119 14.19 17.7588 14.2419L19.086 14.529C19.1128 14.535 19.1406 14.5357 19.1677 14.531C19.1947 14.5263 19.2206 14.5163 19.2438 14.5015C19.267 14.4868 19.287 14.4675 19.3028 14.445C19.3185 14.4224 19.3296 14.397 19.3355 14.3701L19.9896 11.3604C20.0007 11.3071 19.9906 11.2515 19.9613 11.2056C19.932 11.1596 19.8859 11.127 19.8328 11.1145L18.5046 10.804C18.2646 10.7463 18.0468 10.6196 17.878 10.4395C17.7091 10.2594 17.5967 10.0339 17.5545 9.79068C17.5124 9.54747 17.5423 9.29724 17.6407 9.07085C17.739 8.84445 17.9015 8.6518 18.1081 8.51666L19.2245 7.79935C19.2475 7.78473 19.2674 7.76568 19.2829 7.74331C19.2985 7.72093 19.3094 7.69567 19.3151 7.66902C19.321 7.64233 19.3216 7.61473 19.3168 7.58782C19.312 7.56091 19.3019 7.53522 19.2871 7.51222L17.6239 4.93369C17.5937 4.88721 17.5465 4.85451 17.4923 4.84269C17.4382 4.83087 17.3815 4.84089 17.3348 4.87057L16.2206 5.58632C16.0253 5.7125 15.7987 5.78155 15.5662 5.78569C15.3338 5.78983 15.1048 5.72888 14.9051 5.60974C14.6661 5.48035 14.4753 5.27713 14.3613 5.03041C14.2472 4.78368 14.216 4.5067 14.2723 4.24079L14.5541 2.94465C14.5656 2.89065 14.5551 2.8343 14.525 2.788C14.495 2.7417 14.4477 2.70924 14.3937 2.69775L11.3909 2.04764C11.3641 2.04134 11.3363 2.04046 11.3091 2.04508C11.282 2.04969 11.256 2.05969 11.2328 2.0745C11.2096 2.0893 11.1896 2.10861 11.1739 2.13127C11.1583 2.15394 11.1473 2.17951 11.1417 2.20648L10.8536 3.53216C10.7973 3.77501 10.671 3.99604 10.4905 4.16794C10.3099 4.33985 10.083 4.45509 9.83768 4.49944C9.59236 4.5438 9.33943 4.51531 9.11012 4.4175C8.88082 4.3197 8.68519 4.15685 8.54741 3.9491L7.81228 2.80874C7.79736 2.78559 7.77801 2.76561 7.75535 2.74995C7.73268 2.73429 7.70715 2.72326 7.68022 2.71749C7.65328 2.71172 7.62547 2.71133 7.59838 2.71633C7.57129 2.72133 7.54546 2.73163 7.52236 2.74663L4.93825 4.40626C4.91529 4.42094 4.89546 4.44001 4.87989 4.46238C4.86432 4.48474 4.8533 4.50995 4.84749 4.53657C4.84167 4.5632 4.84116 4.59071 4.84599 4.61752C4.85082 4.64434 4.86089 4.66995 4.87563 4.69287L5.6245 5.85461C5.7511 6.0497 5.82046 6.27639 5.82469 6.50893C5.82892 6.74146 5.76785 6.97052 5.64842 7.17009C5.51648 7.40993 5.30992 7.60018 5.06007 7.71199C4.81021 7.8238 4.53071 7.85107 4.26396 7.78965L2.94822 7.48267C2.92107 7.47641 2.89295 7.47556 2.86548 7.48019C2.838 7.48482 2.81171 7.49484 2.78811 7.50966C2.76471 7.52435 2.74449 7.54359 2.72866 7.56623C2.71283 7.58888 2.70172 7.61448 2.69597 7.64151L2.04712 10.6273C2.04131 10.654 2.04084 10.6816 2.04572 10.7085C2.05061 10.7354 2.06076 10.761 2.07559 10.784C2.09042 10.8069 2.10964 10.8267 2.13215 10.8422C2.15465 10.8577 2.17999 10.8686 2.20672 10.8743L3.53492 11.1619C3.77801 11.2176 3.99939 11.3435 4.1716 11.5239C4.34381 11.7043 4.45927 11.9313 4.50367 12.1767C4.54807 12.4221 4.51945 12.6751 4.42135 12.9044C4.32326 13.1337 4.16002 13.3292 3.95186 13.4665L2.80973 14.2001C2.78678 14.2148 2.76695 14.2339 2.75137 14.2562C2.7358 14.2786 2.72479 14.3038 2.71897 14.3304C2.71316 14.3571 2.71265 14.3846 2.71748 14.4114C2.7223 14.4382 2.73238 14.4638 2.74711 14.4867L4.41005 17.0663C4.42487 17.0895 4.44415 17.1096 4.46677 17.1253C4.48939 17.141 4.5149 17.1521 4.54183 17.158C4.56877 17.1638 4.59659 17.1642 4.62368 17.1592C4.65078 17.1542 4.67663 17.1439 4.69972 17.1289L5.84211 16.3953C6.04383 16.2651 6.27883 16.1958 6.51894 16.1957H6.51897Z" fill="url(#automaticId0)"/>
<path d="M10.6884 21C10.599 21 10.5099 20.9904 10.4226 20.9715L7.41977 20.3214C7.25913 20.2867 7.10689 20.2207 6.97177 20.1272C6.83664 20.0337 6.72128 19.9144 6.63227 19.7762C6.54327 19.6381 6.48236 19.4837 6.45305 19.322C6.42373 19.1603 6.42657 18.9944 6.46141 18.8338L6.74956 17.5081C6.75821 17.4683 6.75476 17.4267 6.73966 17.3888C6.72456 17.3509 6.69849 17.3184 6.66479 17.2954C6.62941 17.2648 6.58533 17.2462 6.53879 17.2421C6.49225 17.238 6.44559 17.2486 6.40541 17.2724L5.26327 18.006C4.98404 18.1851 4.64525 18.2462 4.32107 18.1759C3.9969 18.1057 3.71376 17.9099 3.53365 17.6313L1.87098 15.0518C1.78193 14.9137 1.721 14.7594 1.69166 14.5977C1.66233 14.436 1.66517 14.2702 1.70002 14.1096C1.73487 13.949 1.80104 13.7969 1.89476 13.6619C1.98848 13.5269 2.10789 13.4117 2.24617 13.323L3.38857 12.5894C3.42306 12.5675 3.45026 12.5359 3.46668 12.4986C3.48309 12.4612 3.48798 12.4198 3.48071 12.3796C3.47729 12.3332 3.45937 12.2891 3.4295 12.2535C3.39962 12.2179 3.3593 12.1925 3.31424 12.1811L1.98629 11.8934C1.82571 11.8588 1.67354 11.7928 1.53847 11.6993C1.40341 11.6058 1.2881 11.4866 1.19914 11.3484C1.11019 11.2103 1.04932 11.0561 1.02003 10.8944C0.99074 10.7328 0.993598 10.5669 1.02844 10.4064L1.67726 7.42009C1.7125 7.25788 1.77967 7.1043 1.87485 6.9683C1.97004 6.8323 2.09134 6.7166 2.23168 6.62794C2.37203 6.53929 2.52861 6.47945 2.69231 6.45192C2.85601 6.42439 3.02356 6.4297 3.18518 6.46757L4.50041 6.77455C4.54324 6.78481 4.58822 6.78123 4.62889 6.7643C4.66955 6.74738 4.7038 6.71799 4.7267 6.68037C4.75585 6.64391 4.77346 6.59957 4.77727 6.55305C4.78108 6.50652 4.77091 6.45991 4.74807 6.41919L3.99948 5.25796C3.91045 5.11981 3.84953 4.96546 3.8202 4.80375C3.79088 4.64203 3.79372 4.47612 3.82857 4.3155C3.86341 4.15488 3.92958 4.00271 4.02329 3.86769C4.11699 3.73266 4.2364 3.61744 4.37468 3.5286L6.95879 1.86897C7.23811 1.69029 7.5768 1.62941 7.90087 1.69961C8.22494 1.76981 8.50807 1.9654 8.68841 2.24366L9.42353 3.38402C9.44587 3.41865 9.47793 3.44591 9.51569 3.46239C9.55346 3.47888 9.59525 3.48384 9.63583 3.47667C9.68215 3.47317 9.72623 3.4553 9.76191 3.42554C9.7976 3.39579 9.8231 3.35565 9.83488 3.31071L10.123 1.98503C10.1938 1.6609 10.3903 1.37811 10.6694 1.19876C10.9485 1.0194 11.2874 0.95814 11.6116 1.02843L14.6144 1.67854C14.7751 1.71326 14.9273 1.77929 15.0624 1.87285C15.1975 1.96641 15.3128 2.08567 15.4018 2.22381C15.4908 2.36195 15.5517 2.51627 15.581 2.67796C15.6104 2.83965 15.6076 3.00553 15.5728 3.16614L15.291 4.46278C15.2818 4.50466 15.2859 4.54837 15.3027 4.5878C15.3196 4.62724 15.3483 4.66042 15.385 4.68271L15.4371 4.71275C15.4705 4.73267 15.5087 4.7429 15.5475 4.74227C15.5863 4.74164 15.6242 4.73018 15.6568 4.70918L16.7709 3.99343C17.0504 3.81484 17.3891 3.75406 17.7131 3.82435C18.0372 3.89465 18.3203 4.09032 18.5006 4.36863L20.1638 6.94767V6.94819C20.2528 7.08636 20.3136 7.24072 20.3429 7.40244C20.3721 7.56416 20.3692 7.73006 20.3343 7.89065C20.2993 8.05124 20.233 8.20336 20.1392 8.3383C20.0454 8.47323 19.9259 8.58834 19.7875 8.67703L18.6716 9.39382C18.6349 9.4169 18.6065 9.45103 18.5905 9.49129C18.5745 9.53156 18.5717 9.57586 18.5825 9.61782C18.5902 9.65854 18.6094 9.69623 18.6377 9.72651C18.666 9.75679 18.7023 9.77842 18.7424 9.78888L20.0701 10.0994C20.3891 10.1751 20.6658 10.3726 20.8412 10.6496C21.0166 10.9265 21.0768 11.2611 21.0088 11.5819L20.3547 14.5916C20.3197 14.7522 20.2535 14.9043 20.1598 15.0393C20.066 15.1743 19.9466 15.2895 19.8083 15.3784C19.67 15.4672 19.5156 15.5279 19.3538 15.5571C19.1921 15.5862 19.0262 15.5832 18.8656 15.5482L17.5384 15.2611C17.498 15.2518 17.4557 15.255 17.4171 15.2702C17.3785 15.2854 17.3454 15.3118 17.322 15.3461C17.292 15.3811 17.2737 15.4246 17.2698 15.4706C17.2659 15.5165 17.2765 15.5626 17.3002 15.6022L18.0353 16.742C18.1243 16.8801 18.1852 17.0345 18.2145 17.1962C18.2438 17.3579 18.2409 17.5237 18.206 17.6843C18.1711 17.8449 18.1049 17.997 18.0111 18.132C17.9173 18.267 17.7979 18.3821 17.6596 18.4708L15.0754 20.131C14.796 20.3096 14.4572 20.3704 14.1331 20.3001C13.809 20.2298 13.5259 20.0341 13.3456 19.7558L12.5954 18.592C12.572 18.555 12.5375 18.5263 12.4968 18.5102C12.456 18.4941 12.4112 18.4914 12.3689 18.5024C12.3292 18.5109 12.2927 18.5305 12.2637 18.5589C12.2347 18.5873 12.2143 18.6233 12.2049 18.6628L11.9112 20.0144C11.8501 20.2934 11.6956 20.5432 11.4733 20.7225C11.2509 20.9017 10.974 20.9996 10.6884 21ZM6.51897 16.1957C6.70784 16.1974 6.89402 16.2408 7.06426 16.3226C7.23449 16.4044 7.38459 16.5228 7.50387 16.6693C7.62315 16.8157 7.70869 16.9867 7.75439 17.1699C7.80008 17.3532 7.80482 17.5443 7.76826 17.7296L7.48012 19.0553C7.47437 19.0819 7.47392 19.1093 7.47881 19.136C7.48371 19.1628 7.49384 19.1883 7.50863 19.2111C7.52353 19.2342 7.54284 19.2542 7.56547 19.2698C7.5881 19.2854 7.61359 19.2964 7.64049 19.3022L10.6433 19.9523C10.6701 19.9583 10.6978 19.9589 10.7249 19.9542C10.7519 19.9494 10.7777 19.9394 10.8009 19.9246C10.824 19.9099 10.844 19.8907 10.8598 19.8682C10.8755 19.8457 10.8866 19.8203 10.8925 19.7935L11.1862 18.4413C11.235 18.215 11.3459 18.0067 11.5064 17.8398C11.6669 17.6729 11.8707 17.554 12.0949 17.4965C12.1102 17.4924 12.1347 17.4868 12.1502 17.4842C12.3995 17.4258 12.6609 17.4466 12.8978 17.5439C13.1347 17.6412 13.3353 17.8101 13.4715 18.0269L14.2219 19.1907C14.2368 19.2139 14.2561 19.234 14.2787 19.2497C14.3014 19.2655 14.3269 19.2766 14.3539 19.2824C14.3808 19.2882 14.4086 19.2886 14.4358 19.2836C14.4629 19.2787 14.4887 19.2683 14.5119 19.2533L17.0957 17.5937C17.1187 17.5791 17.1386 17.56 17.1543 17.5377C17.1699 17.5153 17.181 17.4901 17.1869 17.4635C17.1927 17.4369 17.1933 17.4093 17.1885 17.3825C17.1837 17.3556 17.1736 17.33 17.1589 17.3071L16.4235 16.1667C16.2888 15.9589 16.2192 15.7156 16.2236 15.468C16.228 15.2205 16.3062 14.9798 16.4482 14.7769C16.5883 14.5671 16.7879 14.404 17.0215 14.3086C17.2551 14.2133 17.5119 14.19 17.7588 14.2419L19.086 14.529C19.1128 14.535 19.1406 14.5357 19.1677 14.531C19.1947 14.5263 19.2206 14.5163 19.2438 14.5015C19.267 14.4868 19.287 14.4675 19.3028 14.445C19.3185 14.4224 19.3296 14.397 19.3355 14.3701L19.9896 11.3604C20.0007 11.3071 19.9906 11.2515 19.9613 11.2056C19.932 11.1596 19.8859 11.127 19.8328 11.1145L18.5046 10.804C18.2646 10.7463 18.0468 10.6196 17.878 10.4395C17.7091 10.2594 17.5967 10.0339 17.5545 9.79068C17.5124 9.54747 17.5423 9.29724 17.6407 9.07085C17.739 8.84445 17.9015 8.6518 18.1081 8.51666L19.2245 7.79935C19.2475 7.78473 19.2674 7.76568 19.2829 7.74331C19.2985 7.72093 19.3094 7.69567 19.3151 7.66902C19.321 7.64233 19.3216 7.61473 19.3168 7.58782C19.312 7.56091 19.3019 7.53522 19.2871 7.51222L17.6239 4.93369C17.5937 4.88721 17.5465 4.85451 17.4923 4.84269C17.4382 4.83087 17.3815 4.84089 17.3348 4.87057L16.2206 5.58632C16.0253 5.7125 15.7987 5.78155 15.5662 5.78569C15.3338 5.78983 15.1048 5.72888 14.9051 5.60974C14.6661 5.48035 14.4753 5.27713 14.3613 5.03041C14.2472 4.78368 14.216 4.5067 14.2723 4.24079L14.5541 2.94465C14.5656 2.89065 14.5551 2.8343 14.525 2.788C14.495 2.7417 14.4477 2.70924 14.3937 2.69775L11.3909 2.04764C11.3641 2.04134 11.3363 2.04046 11.3091 2.04508C11.282 2.04969 11.256 2.05969 11.2328 2.0745C11.2096 2.0893 11.1896 2.10861 11.1739 2.13127C11.1583 2.15394 11.1473 2.17951 11.1417 2.20648L10.8536 3.53216C10.7973 3.77501 10.671 3.99604 10.4905 4.16794C10.3099 4.33985 10.083 4.45509 9.83768 4.49944C9.59236 4.5438 9.33943 4.51531 9.11012 4.4175C8.88082 4.3197 8.68519 4.15685 8.54741 3.9491L7.81228 2.80874C7.79736 2.78559 7.77801 2.76561 7.75535 2.74995C7.73268 2.73429 7.70715 2.72326 7.68022 2.71749C7.65328 2.71172 7.62547 2.71133 7.59838 2.71633C7.57129 2.72133 7.54546 2.73163 7.52236 2.74663L4.93825 4.40626C4.91529 4.42094 4.89546 4.44001 4.87989 4.46238C4.86432 4.48474 4.8533 4.50995 4.84749 4.53657C4.84167 4.5632 4.84116 4.59071 4.84599 4.61752C4.85082 4.64434 4.86089 4.66995 4.87563 4.69287L5.6245 5.85461C5.7511 6.0497 5.82046 6.27639 5.82469 6.50893C5.82892 6.74146 5.76785 6.97052 5.64842 7.17009C5.51648 7.40993 5.30992 7.60018 5.06007 7.71199C4.81021 7.8238 4.53071 7.85107 4.26396 7.78965L2.94822 7.48267C2.92107 7.47641 2.89295 7.47556 2.86548 7.48019C2.838 7.48482 2.81171 7.49484 2.78811 7.50966C2.76471 7.52435 2.74449 7.54359 2.72866 7.56623C2.71283 7.58888 2.70172 7.61448 2.69597 7.64151L2.04712 10.6273C2.04131 10.654 2.04084 10.6816 2.04572 10.7085C2.05061 10.7354 2.06076 10.761 2.07559 10.784C2.09042 10.8069 2.10964 10.8267 2.13215 10.8422C2.15465 10.8577 2.17999 10.8686 2.20672 10.8743L3.53492 11.1619C3.77801 11.2176 3.99939 11.3435 4.1716 11.5239C4.34381 11.7043 4.45927 11.9313 4.50367 12.1767C4.54807 12.4221 4.51945 12.6751 4.42135 12.9044C4.32326 13.1337 4.16002 13.3292 3.95186 13.4665L2.80973 14.2001C2.78678 14.2148 2.76695 14.2339 2.75137 14.2562C2.7358 14.2786 2.72479 14.3038 2.71897 14.3304C2.71316 14.3571 2.71265 14.3846 2.71748 14.4114C2.7223 14.4382 2.73238 14.4638 2.74711 14.4867L4.41005 17.0663C4.42487 17.0895 4.44415 17.1096 4.46677 17.1253C4.48939 17.141 4.5149 17.1521 4.54183 17.158C4.56877 17.1638 4.59659 17.1642 4.62368 17.1592C4.65078 17.1542 4.67663 17.1439 4.69972 17.1289L5.84211 16.3953C6.04383 16.2651 6.27883 16.1958 6.51894 16.1957H6.51897Z" stroke="#F5F7F7" stroke-width="0.3"/>
<path d="M10.6884 21C10.599 21 10.5099 20.9904 10.4226 20.9715L7.41977 20.3214C7.25913 20.2867 7.10689 20.2207 6.97177 20.1272C6.83664 20.0337 6.72128 19.9144 6.63227 19.7762C6.54327 19.6381 6.48236 19.4837 6.45305 19.322C6.42373 19.1603 6.42657 18.9944 6.46141 18.8338L6.74956 17.5081C6.75821 17.4683 6.75476 17.4267 6.73966 17.3888C6.72456 17.3509 6.69849 17.3184 6.66479 17.2954C6.62941 17.2648 6.58533 17.2462 6.53879 17.2421C6.49225 17.238 6.44559 17.2486 6.40541 17.2724L5.26327 18.006C4.98404 18.1851 4.64525 18.2462 4.32107 18.1759C3.9969 18.1057 3.71376 17.9099 3.53365 17.6313L1.87098 15.0518C1.78193 14.9137 1.721 14.7594 1.69166 14.5977C1.66233 14.436 1.66517 14.2702 1.70002 14.1096C1.73487 13.949 1.80104 13.7969 1.89476 13.6619C1.98848 13.5269 2.10789 13.4117 2.24617 13.323L3.38857 12.5894C3.42306 12.5675 3.45026 12.5359 3.46668 12.4986C3.48309 12.4612 3.48798 12.4198 3.48071 12.3796C3.47729 12.3332 3.45937 12.2891 3.4295 12.2535C3.39962 12.2179 3.3593 12.1925 3.31424 12.1811L1.98629 11.8934C1.82571 11.8588 1.67354 11.7928 1.53847 11.6993C1.40341 11.6058 1.2881 11.4866 1.19914 11.3484C1.11019 11.2103 1.04932 11.0561 1.02003 10.8944C0.99074 10.7328 0.993598 10.5669 1.02844 10.4064L1.67726 7.42009C1.7125 7.25788 1.77967 7.1043 1.87485 6.9683C1.97004 6.8323 2.09134 6.7166 2.23168 6.62794C2.37203 6.53929 2.52861 6.47945 2.69231 6.45192C2.85601 6.42439 3.02356 6.4297 3.18518 6.46757L4.50041 6.77455C4.54324 6.78481 4.58822 6.78123 4.62889 6.7643C4.66955 6.74738 4.7038 6.71799 4.7267 6.68037C4.75585 6.64391 4.77346 6.59957 4.77727 6.55305C4.78108 6.50652 4.77091 6.45991 4.74807 6.41919L3.99948 5.25796C3.91045 5.11981 3.84953 4.96546 3.8202 4.80375C3.79088 4.64203 3.79372 4.47612 3.82857 4.3155C3.86341 4.15488 3.92958 4.00271 4.02329 3.86769C4.11699 3.73266 4.2364 3.61744 4.37468 3.5286L6.95879 1.86897C7.23811 1.69029 7.5768 1.62941 7.90087 1.69961C8.22494 1.76981 8.50807 1.9654 8.68841 2.24366L9.42353 3.38402C9.44587 3.41865 9.47793 3.44591 9.51569 3.46239C9.55346 3.47888 9.59525 3.48384 9.63583 3.47667C9.68215 3.47317 9.72623 3.4553 9.76191 3.42554C9.7976 3.39579 9.8231 3.35565 9.83488 3.31071L10.123 1.98503C10.1938 1.6609 10.3903 1.37811 10.6694 1.19876C10.9485 1.0194 11.2874 0.95814 11.6116 1.02843L14.6144 1.67854C14.7751 1.71326 14.9273 1.77929 15.0624 1.87285C15.1975 1.96641 15.3128 2.08567 15.4018 2.22381C15.4908 2.36195 15.5517 2.51627 15.581 2.67796C15.6104 2.83965 15.6076 3.00553 15.5728 3.16614L15.291 4.46278C15.2818 4.50466 15.2859 4.54837 15.3027 4.5878C15.3196 4.62724 15.3483 4.66042 15.385 4.68271L15.4371 4.71275C15.4705 4.73267 15.5087 4.7429 15.5475 4.74227C15.5863 4.74164 15.6242 4.73018 15.6568 4.70918L16.7709 3.99343C17.0504 3.81484 17.3891 3.75406 17.7131 3.82435C18.0372 3.89465 18.3203 4.09032 18.5006 4.36863L20.1638 6.94767V6.94819C20.2528 7.08636 20.3136 7.24072 20.3429 7.40244C20.3721 7.56416 20.3692 7.73006 20.3343 7.89065C20.2993 8.05124 20.233 8.20336 20.1392 8.3383C20.0454 8.47323 19.9259 8.58834 19.7875 8.67703L18.6716 9.39382C18.6349 9.4169 18.6065 9.45103 18.5905 9.49129C18.5745 9.53156 18.5717 9.57586 18.5825 9.61782C18.5902 9.65854 18.6094 9.69623 18.6377 9.72651C18.666 9.75679 18.7023 9.77842 18.7424 9.78888L20.0701 10.0994C20.3891 10.1751 20.6658 10.3726 20.8412 10.6496C21.0166 10.9265 21.0768 11.2611 21.0088 11.5819L20.3547 14.5916C20.3197 14.7522 20.2535 14.9043 20.1598 15.0393C20.066 15.1743 19.9466 15.2895 19.8083 15.3784C19.67 15.4672 19.5156 15.5279 19.3538 15.5571C19.1921 15.5862 19.0262 15.5832 18.8656 15.5482L17.5384 15.2611C17.498 15.2518 17.4557 15.255 17.4171 15.2702C17.3785 15.2854 17.3454 15.3118 17.322 15.3461C17.292 15.3811 17.2737 15.4246 17.2698 15.4706C17.2659 15.5165 17.2765 15.5626 17.3002 15.6022L18.0353 16.742C18.1243 16.8801 18.1852 17.0345 18.2145 17.1962C18.2438 17.3579 18.2409 17.5237 18.206 17.6843C18.1711 17.8449 18.1049 17.997 18.0111 18.132C17.9173 18.267 17.7979 18.3821 17.6596 18.4708L15.0754 20.131C14.796 20.3096 14.4572 20.3704 14.1331 20.3001C13.809 20.2298 13.5259 20.0341 13.3456 19.7558L12.5954 18.592C12.572 18.555 12.5375 18.5263 12.4968 18.5102C12.456 18.4941 12.4112 18.4914 12.3689 18.5024C12.3292 18.5109 12.2927 18.5305 12.2637 18.5589C12.2347 18.5873 12.2143 18.6233 12.2049 18.6628L11.9112 20.0144C11.8501 20.2934 11.6956 20.5432 11.4733 20.7225C11.2509 20.9017 10.974 20.9996 10.6884 21ZM6.51897 16.1957C6.70784 16.1974 6.89402 16.2408 7.06426 16.3226C7.23449 16.4044 7.38459 16.5228 7.50387 16.6693C7.62315 16.8157 7.70869 16.9867 7.75439 17.1699C7.80008 17.3532 7.80482 17.5443 7.76826 17.7296L7.48012 19.0553C7.47437 19.0819 7.47392 19.1093 7.47881 19.136C7.48371 19.1628 7.49384 19.1883 7.50863 19.2111C7.52353 19.2342 7.54284 19.2542 7.56547 19.2698C7.5881 19.2854 7.61359 19.2964 7.64049 19.3022L10.6433 19.9523C10.6701 19.9583 10.6978 19.9589 10.7249 19.9542C10.7519 19.9494 10.7777 19.9394 10.8009 19.9246C10.824 19.9099 10.844 19.8907 10.8598 19.8682C10.8755 19.8457 10.8866 19.8203 10.8925 19.7935L11.1862 18.4413C11.235 18.215 11.3459 18.0067 11.5064 17.8398C11.6669 17.6729 11.8707 17.554 12.0949 17.4965C12.1102 17.4924 12.1347 17.4868 12.1502 17.4842C12.3995 17.4258 12.6609 17.4466 12.8978 17.5439C13.1347 17.6412 13.3353 17.8101 13.4715 18.0269L14.2219 19.1907C14.2368 19.2139 14.2561 19.234 14.2787 19.2497C14.3014 19.2655 14.3269 19.2766 14.3539 19.2824C14.3808 19.2882 14.4086 19.2886 14.4358 19.2836C14.4629 19.2787 14.4887 19.2683 14.5119 19.2533L17.0957 17.5937C17.1187 17.5791 17.1386 17.56 17.1543 17.5377C17.1699 17.5153 17.181 17.4901 17.1869 17.4635C17.1927 17.4369 17.1933 17.4093 17.1885 17.3825C17.1837 17.3556 17.1736 17.33 17.1589 17.3071L16.4235 16.1667C16.2888 15.9589 16.2192 15.7156 16.2236 15.468C16.228 15.2205 16.3062 14.9798 16.4482 14.7769C16.5883 14.5671 16.7879 14.404 17.0215 14.3086C17.2551 14.2133 17.5119 14.19 17.7588 14.2419L19.086 14.529C19.1128 14.535 19.1406 14.5357 19.1677 14.531C19.1947 14.5263 19.2206 14.5163 19.2438 14.5015C19.267 14.4868 19.287 14.4675 19.3028 14.445C19.3185 14.4224 19.3296 14.397 19.3355 14.3701L19.9896 11.3604C20.0007 11.3071 19.9906 11.2515 19.9613 11.2056C19.932 11.1596 19.8859 11.127 19.8328 11.1145L18.5046 10.804C18.2646 10.7463 18.0468 10.6196 17.878 10.4395C17.7091 10.2594 17.5967 10.0339 17.5545 9.79068C17.5124 9.54747 17.5423 9.29724 17.6407 9.07085C17.739 8.84445 17.9015 8.6518 18.1081 8.51666L19.2245 7.79935C19.2475 7.78473 19.2674 7.76568 19.2829 7.74331C19.2985 7.72093 19.3094 7.69567 19.3151 7.66902C19.321 7.64233 19.3216 7.61473 19.3168 7.58782C19.312 7.56091 19.3019 7.53522 19.2871 7.51222L17.6239 4.93369C17.5937 4.88721 17.5465 4.85451 17.4923 4.84269C17.4382 4.83087 17.3815 4.84089 17.3348 4.87057L16.2206 5.58632C16.0253 5.7125 15.7987 5.78155 15.5662 5.78569C15.3338 5.78983 15.1048 5.72888 14.9051 5.60974C14.6661 5.48035 14.4753 5.27713 14.3613 5.03041C14.2472 4.78368 14.216 4.5067 14.2723 4.24079L14.5541 2.94465C14.5656 2.89065 14.5551 2.8343 14.525 2.788C14.495 2.7417 14.4477 2.70924 14.3937 2.69775L11.3909 2.04764C11.3641 2.04134 11.3363 2.04046 11.3091 2.04508C11.282 2.04969 11.256 2.05969 11.2328 2.0745C11.2096 2.0893 11.1896 2.10861 11.1739 2.13127C11.1583 2.15394 11.1473 2.17951 11.1417 2.20648L10.8536 3.53216C10.7973 3.77501 10.671 3.99604 10.4905 4.16794C10.3099 4.33985 10.083 4.45509 9.83768 4.49944C9.59236 4.5438 9.33943 4.51531 9.11012 4.4175C8.88082 4.3197 8.68519 4.15685 8.54741 3.9491L7.81228 2.80874C7.79736 2.78559 7.77801 2.76561 7.75535 2.74995C7.73268 2.73429 7.70715 2.72326 7.68022 2.71749C7.65328 2.71172 7.62547 2.71133 7.59838 2.71633C7.57129 2.72133 7.54546 2.73163 7.52236 2.74663L4.93825 4.40626C4.91529 4.42094 4.89546 4.44001 4.87989 4.46238C4.86432 4.48474 4.8533 4.50995 4.84749 4.53657C4.84167 4.5632 4.84116 4.59071 4.84599 4.61752C4.85082 4.64434 4.86089 4.66995 4.87563 4.69287L5.6245 5.85461C5.7511 6.0497 5.82046 6.27639 5.82469 6.50893C5.82892 6.74146 5.76785 6.97052 5.64842 7.17009C5.51648 7.40993 5.30992 7.60018 5.06007 7.71199C4.81021 7.8238 4.53071 7.85107 4.26396 7.78965L2.94822 7.48267C2.92107 7.47641 2.89295 7.47556 2.86548 7.48019C2.838 7.48482 2.81171 7.49484 2.78811 7.50966C2.76471 7.52435 2.74449 7.54359 2.72866 7.56623C2.71283 7.58888 2.70172 7.61448 2.69597 7.64151L2.04712 10.6273C2.04131 10.654 2.04084 10.6816 2.04572 10.7085C2.05061 10.7354 2.06076 10.761 2.07559 10.784C2.09042 10.8069 2.10964 10.8267 2.13215 10.8422C2.15465 10.8577 2.17999 10.8686 2.20672 10.8743L3.53492 11.1619C3.77801 11.2176 3.99939 11.3435 4.1716 11.5239C4.34381 11.7043 4.45927 11.9313 4.50367 12.1767C4.54807 12.4221 4.51945 12.6751 4.42135 12.9044C4.32326 13.1337 4.16002 13.3292 3.95186 13.4665L2.80973 14.2001C2.78678 14.2148 2.76695 14.2339 2.75137 14.2562C2.7358 14.2786 2.72479 14.3038 2.71897 14.3304C2.71316 14.3571 2.71265 14.3846 2.71748 14.4114C2.7223 14.4382 2.73238 14.4638 2.74711 14.4867L4.41005 17.0663C4.42487 17.0895 4.44415 17.1096 4.46677 17.1253C4.48939 17.141 4.5149 17.1521 4.54183 17.158C4.56877 17.1638 4.59659 17.1642 4.62368 17.1592C4.65078 17.1542 4.67663 17.1439 4.69972 17.1289L5.84211 16.3953C6.04383 16.2651 6.27883 16.1958 6.51894 16.1957H6.51897Z" stroke="url(#automaticId1)" stroke-width="0.3"/>
<path d="M7.32518 11.0952L8.91151 10.4425L8.57892 9.45203L5.69141 10.6771V11.5133L8.5784 12.7383L8.91203 11.7505L7.32518 11.0952Z" fill="#F5F7F7"/>
<path d="M7.32518 11.0952L8.91151 10.4425L8.57892 9.45203L5.69141 10.6771V11.5133L8.5784 12.7383L8.91203 11.7505L7.32518 11.0952Z" fill="url(#automaticId2)"/>
<path d="M7.32518 11.0952L8.91151 10.4425L8.57892 9.45203L5.69141 10.6771V11.5133L8.5784 12.7383L8.91203 11.7505L7.32518 11.0952Z" stroke="#F5F7F7" stroke-width="0.3"/>
<path d="M7.32518 11.0952L8.91151 10.4425L8.57892 9.45203L5.69141 10.6771V11.5133L8.5784 12.7383L8.91203 11.7505L7.32518 11.0952Z" stroke="url(#automaticId3)" stroke-width="0.3"/>
<path d="M11.3872 8.08465L9.28369 14.1057H10.4337L12.5241 8.08465H11.3872Z" fill="#F5F7F7"/>
<path d="M11.3872 8.08465L9.28369 14.1057H10.4337L12.5241 8.08465H11.3872Z" fill="url(#automaticId4)"/>
<path d="M11.3872 8.08465L9.28369 14.1057H10.4337L12.5241 8.08465H11.3872Z" stroke="#F5F7F7" stroke-width="0.3"/>
<path d="M11.3872 8.08465L9.28369 14.1057H10.4337L12.5241 8.08465H11.3872Z" stroke="url(#automaticId5)" stroke-width="0.3"/>
<path d="M13.2301 9.45203L12.8975 10.4425L14.4838 11.0952L12.897 11.7505L13.2306 12.7383L16.1176 11.5133V10.6771L13.2301 9.45203Z" fill="#F5F7F7"/>
<path d="M13.2301 9.45203L12.8975 10.4425L14.4838 11.0952L12.897 11.7505L13.2306 12.7383L16.1176 11.5133V10.6771L13.2301 9.45203Z" fill="url(#automaticId6)"/>
<path d="M13.2301 9.45203L12.8975 10.4425L14.4838 11.0952L12.897 11.7505L13.2306 12.7383L16.1176 11.5133V10.6771L13.2301 9.45203Z" stroke="#F5F7F7" stroke-width="0.3"/>
<path d="M13.2301 9.45203L12.8975 10.4425L14.4838 11.0952L12.897 11.7505L13.2306 12.7383L16.1176 11.5133V10.6771L13.2301 9.45203Z" stroke="url(#automaticId7)" stroke-width="0.3"/>
<defs>
<linearGradient id="automaticId0" x1="1" y1="1.8" x2="22.3514" y2="19.4049" gradientUnits="userSpaceOnUse">
<stop stop-color="#FFD653"/>
<stop offset="1" stop-color="#EF4B23"/>
</linearGradient>
<linearGradient id="automaticId1" x1="1" y1="1.8" x2="22.3514" y2="19.4049" gradientUnits="userSpaceOnUse">
<stop stop-color="#FFD653"/>
<stop offset="1" stop-color="#EF4B23"/>
</linearGradient>
<linearGradient id="automaticId2" x1="5.69141" y1="9.58348" x2="9.18428" y2="12.4008" gradientUnits="userSpaceOnUse">
<stop stop-color="#FFD653"/>
<stop offset="1" stop-color="#EF4B23"/>
</linearGradient>
<linearGradient id="automaticId3" x1="5.69141" y1="9.58348" x2="9.18428" y2="12.4008" gradientUnits="userSpaceOnUse">
<stop stop-color="#FFD653"/>
<stop offset="1" stop-color="#EF4B23"/>
</linearGradient>
<linearGradient id="automaticId4" x1="9.28369" y1="8.3255" x2="14.133" y2="10.4735" gradientUnits="userSpaceOnUse">
<stop stop-color="#FFD653"/>
<stop offset="1" stop-color="#EF4B23"/>
</linearGradient>
<linearGradient id="automaticId5" x1="9.28369" y1="8.3255" x2="14.133" y2="10.4735" gradientUnits="userSpaceOnUse">
<stop stop-color="#FFD653"/>
<stop offset="1" stop-color="#EF4B23"/>
</linearGradient>
<linearGradient id="automaticId6" x1="12.897" y1="9.58348" x2="16.3898" y2="12.4008" gradientUnits="userSpaceOnUse">
<stop stop-color="#FFD653"/>
<stop offset="1" stop-color="#EF4B23"/>
</linearGradient>
<linearGradient id="automaticId7" x1="12.897" y1="9.58348" x2="16.3898" y2="12.4008" gradientUnits="userSpaceOnUse">
<stop stop-color="#FFD653"/>
<stop offset="1" stop-color="#EF4B23"/>
</linearGradient>
</defs>
</svg>
