<svg width="14" height="20" viewBox="0 0 14 20" fill="none" xmlns="http://www.w3.org/2000/svg">
<path d="M10.6094 19.1071C10.6094 19.767 10.1166 20.1181 9.50882 19.8913L1.14355 16.222C0.535685 15.9952 0.0428467 15.2763 0.0428467 14.6165V3.06617C0.0428467 2.40629 0.560698 2.03739 1.14355 2.28202L9.50882 5.95119C10.1167 6.17805 10.6094 6.89688 10.6094 7.55676V19.1071Z" fill="#B5BEBD"/>
<path d="M9.52487 5.91471C10.1439 6.14571 10.6493 6.8827 10.6493 7.55676V19.107C10.6493 19.6411 10.3348 20 9.86684 20C9.74711 20 9.62205 19.9759 9.49492 19.9285L1.12757 16.2585C0.508476 16.0276 0.00305176 15.2906 0.00305176 14.6165V3.06617C0.00305176 2.53207 1.37475 1.21047 1.08241 1.57594C0.686829 2.07053 1.03047 2.19727 1.15752 2.24474L9.52487 5.91471ZM0.785604 2.25287C0.365173 2.25287 0.0827089 2.5797 0.0827089 3.06609V14.6164C0.0827089 15.26 0.564874 15.9635 1.15752 16.1847L9.52487 19.8547C9.64093 19.898 9.75667 19.9203 9.86684 19.9203C10.2872 19.9203 10.5697 19.5934 10.5697 19.107V7.55676C10.5697 6.91313 10.0875 6.2096 9.49492 5.98847L1.12757 2.3185C1.01151 2.27525 0.895769 2.25287 0.785604 2.25287Z" fill="#B5BEBD"/>
<path d="M10.1001 19.9042L9.69643 19.4112L11.8041 17.685L12.1174 17.633C12.3072 17.704 12.4772 17.6974 12.5959 17.6149C12.7199 17.5289 12.7881 17.3629 12.7881 17.1474V5.59711C12.7881 5.0693 12.3789 4.47076 11.8946 4.29002L11.8829 4.2854L3.17219 0.638294C2.48236 0.618061 1.78145 0.884992 1.28415 1.35768C0.866988 1.75413 0.637257 2.26059 0.637257 2.78386V3.10249H0V2.78386C0 2.08423 0.300148 1.41368 0.845083 0.895746C1.47971 0.292662 2.38262 -0.0407033 3.25853 0.00398438L3.36543 0.0282798L12.1235 3.69522C12.854 3.97131 13.4253 4.80524 13.4253 5.59703V17.1473C13.4253 17.5715 13.2554 17.9327 12.9593 18.1383C12.7141 18.3084 12.4001 18.359 12.0771 18.2849L10.1001 19.9042Z" fill="#B5BEBD"/>
</svg>
