<svg width="7" height="10" viewBox="0 0 7 10" fill="none" xmlns="http://www.w3.org/2000/svg">
<path d="M6.08497 0H0.915033C0.411765 0 0 0.434783 0 0.966184V9.39614C0 9.6256 0.125817 9.843 0.320262 9.93961C0.526144 10.0362 0.754902 10.0121 0.926471 9.86715L0.937909 9.85507L3.5 7.57246L6.06209 9.85507L6.07353 9.86715C6.17647 9.95169 6.30229 10 6.4281 10C6.50817 10 6.59967 9.97585 6.67974 9.92754C6.87418 9.83092 7 9.61353 7 9.38406V0.966184C7 0.434783 6.58824 0 6.08497 0Z" fill="#F5F7F7"/>
<path d="M6.08497 0H0.915033C0.411765 0 0 0.434783 0 0.966184V9.39614C0 9.6256 0.125817 9.843 0.320262 9.93961C0.526144 10.0362 0.754902 10.0121 0.926471 9.86715L0.937909 9.85507L3.5 7.57246L6.06209 9.85507L6.07353 9.86715C6.17647 9.95169 6.30229 10 6.4281 10C6.50817 10 6.59967 9.97585 6.67974 9.92754C6.87418 9.83092 7 9.61353 7 9.38406V0.966184C7 0.434783 6.58824 0 6.08497 0Z" fill="url(#paint_linear_flag)"/>
<defs>
<linearGradient id="paint_linear_flag" x1="3.20435e-08" y1="0.4" x2="9.40807" y2="5.82028" gradientUnits="userSpaceOnUse">
<stop stop-color="#FFD653"/>
<stop offset="1" stop-color="#EF4B23"/>
</linearGradient>
</defs>
</svg>
