<svg width="15" height="15" viewBox="0 0 15 15" fill="none" xmlns="http://www.w3.org/2000/svg">
<path d="M14.8537 3.20189C14.2078 2.00525 13.0302 0.808616 11.8146 0.143817C11.3587 -0.103108 10.8269 -0.0271309 10.466 0.33376L1.27276 9.52698C1.19679 9.60295 1.1398 9.69792 1.12081 9.7929L0.019142 14.2755C-0.0378408 14.4655 0.0381361 14.6744 0.171096 14.8264C0.32305 14.9783 0.531987 15.0353 0.721929 14.9783L5.20457 13.8767C5.29954 13.8577 5.39451 13.8007 5.47049 13.7247L5.81239 13.3828L14.6637 4.53149C15.0246 4.18959 15.1006 3.65775 14.8537 3.20189ZM2.67834 13.3068C2.45041 12.889 2.10851 12.5661 1.69064 12.3191L2.18449 10.3437C3.17219 10.8946 4.1219 11.8633 4.65374 12.832L2.67834 13.3068Z" fill="#D6DBDB"/>
</svg>
