<svg width="18" height="19" viewBox="0 0 18 19" fill="none" xmlns="http://www.w3.org/2000/svg">
<path d="M18 9.00121C18.0049 7.38343 17.5679 5.79502 16.736 4.40749C15.9041 3.01995 14.7091 1.886 13.2798 1.12806C11.9831 0.367766 10.5027 -0.0220897 8.99969 0.000966486C6.61045 0.00781742 4.32141 0.961741 2.63438 2.65361C0.947356 4.34549 0 6.63725 0 9.0265C0 11.4157 0.947356 13.7075 2.63438 15.3994C4.32141 17.0913 6.61045 18.0452 8.99969 18.052C10.6307 18.0452 12.2305 17.6036 13.6341 16.7728L13.6361 16.7714L13.6385 16.7703L13.6407 16.7683C15.704 15.4978 17.1869 13.4689 17.7711 11.1173C17.7732 11.1113 17.7775 11.1066 17.7793 11.1004C17.7809 11.0952 17.7794 11.0901 17.7807 11.0849C17.7837 11.0732 17.7881 11.0621 17.791 11.0503C17.9179 10.3743 17.9878 9.68889 18 9.00121ZM9.00331 12.7968C8.44063 12.7972 7.88492 12.6723 7.37651 12.4312C6.86809 12.1901 6.41971 11.8389 6.0639 11.403C5.70809 10.9671 5.45377 10.4574 5.3194 9.91104C5.18502 9.36464 5.17396 8.79518 5.28701 8.24397C5.40006 7.69277 5.63438 7.17363 5.97299 6.72424C6.3116 6.27485 6.746 5.90646 7.24467 5.64581C7.74333 5.38516 8.29377 5.23878 8.85604 5.21728C9.41831 5.19579 9.97831 5.29973 10.4954 5.52155C10.5319 5.54746 10.5725 5.56704 10.6155 5.57946C11.3522 5.91818 11.9589 6.48702 12.3444 7.20037C12.7299 7.91371 12.8732 8.73295 12.7529 9.53481C12.7405 9.55386 12.7299 9.57396 12.721 9.59488C12.7039 9.65581 12.7014 9.71993 12.7137 9.78201C12.5344 10.6337 12.068 11.3978 11.3925 11.9467C10.7171 12.4955 9.87362 12.7956 9.00331 12.7968ZM0.823959 9.00121C0.826424 6.83363 1.68859 4.75554 3.2213 3.22283C4.75401 1.69012 6.83211 0.827964 8.99969 0.825505C10.2078 0.810608 11.4018 1.08539 12.4819 1.62684L10.544 4.66008C9.83085 4.40532 9.066 4.32994 8.31688 4.4406C7.56776 4.55126 6.85737 4.84456 6.24837 5.29462C5.63938 5.74468 5.15048 6.33767 4.8248 7.02131C4.49912 7.70495 4.34666 8.45823 4.38087 9.21471C4.41508 9.97119 4.63491 10.7076 5.02097 11.3591C5.40702 12.0105 5.94745 12.557 6.59458 12.9502C7.24172 13.3435 7.97568 13.5715 8.73173 13.6141C9.48779 13.6566 10.2427 13.5125 10.9299 13.1945L12.8387 16.265C11.5898 16.9317 10.189 17.2624 8.77379 17.2246C7.35857 17.1868 5.97748 16.7818 4.76597 16.0493C3.55445 15.3169 2.5541 14.2821 1.86303 13.0465C1.17196 11.8109 0.8139 10.4169 0.823959 9.00121ZM13.545 15.8391L11.6459 12.7842C12.5219 12.17 13.158 11.2712 13.4459 10.2408L16.872 11.2605C16.3252 13.1252 15.1496 14.743 13.545 15.8391Z" fill="#B5BEBD"/>
</svg>
